<svg width="375" height="275" viewBox="0 0 375 275" fill="none" xmlns="http://www.w3.org/2000/svg">
<mask id="mask0" mask-type="alpha" maskUnits="userSpaceOnUse" x="0" y="0" width="375" height="275">
<rect width="375" height="275" fill="#C4C4C4"/>
</mask>
<g mask="url(#mask0)">
<path d="M0 174.216V0H379.548C381.398 69.9504 383.989 207.476 379.548 197.973C373.996 186.095 319.902 232.05 254.882 209.851C185 185.992 143.845 192.254 95.8963 174.216C57.5378 159.786 15.9827 168.204 0 174.216Z" fill="#F9F5EA"/>
<path d="M256 274.923C337.815 274.923 404.14 271.053 404.14 266.278C404.14 261.503 337.815 257.632 256 257.632C174.185 257.632 107.86 261.503 107.86 266.278C107.86 271.053 174.185 274.923 256 274.923Z" fill="#F5F5F5"/>
<path d="M447 240.418H65V240.571H447V240.418Z" fill="#EBEBEB"/>
<path d="M336.984 254.802H302.604V254.955H336.984V254.802Z" fill="#EBEBEB"/>
<path d="M388.096 245.62H341.644V245.773H388.096V245.62Z" fill="#EBEBEB"/>
<path d="M119.779 246.921H105.11V247.074H119.779V246.921Z" fill="#EBEBEB"/>
<path d="M168.828 246.921H126.578V247.074H168.828V246.921Z" fill="#EBEBEB"/>
<path d="M251.569 250.134H194.651V250.288H251.569V250.134Z" fill="#EBEBEB"/>
<path d="M116.494 184.26H100.297V240.418H116.494V184.26Z" fill="#FAFAFA"/>
<path d="M130.704 196.578H114.507V240.418H130.704V196.578Z" fill="#FAFAFA"/>
<path d="M141.094 160.466H124.898V240.418H141.094V160.466Z" fill="#FAFAFA"/>
<path d="M151.79 95.6623H135.594V240.418H151.79V95.6623Z" fill="#FAFAFA"/>
<path d="M191.9 106.909H148.429V240.418H191.9V106.909Z" fill="#FAFAFA"/>
<path d="M379.386 202.01H360.897V240.418H379.386V202.01Z" fill="#FAFAFA"/>
<path d="M363.189 210.426H344.7V240.418H363.189V210.426Z" fill="#FAFAFA"/>
<path d="M351.347 185.714H332.858V240.418H351.347V185.714Z" fill="#FAFAFA"/>
<path d="M339.047 141.338H320.558V240.418H339.047V141.338Z" fill="#FAFAFA"/>
<path d="M330.49 119.38H273.725V240.418H330.49V119.38Z" fill="#F0F0F0"/>
<path d="M325.066 124.43H322.392V139.12H325.066V124.43Z" fill="#F5F5F5"/>
<path d="M325.066 147.536H322.392V162.225H325.066V147.536Z" fill="#F5F5F5"/>
<path d="M325.066 170.488H322.392V185.178H325.066V170.488Z" fill="#F5F5F5"/>
<path d="M325.066 193.518H322.392V208.207H325.066V193.518Z" fill="#F5F5F5"/>
<path d="M325.066 216.623H322.392V231.313H325.066V216.623Z" fill="#F5F5F5"/>
<path d="M315.439 124.43H312.765V139.12H315.439V124.43Z" fill="#F5F5F5"/>
<path d="M315.439 147.536H312.765V162.225H315.439V147.536Z" fill="#F5F5F5"/>
<path d="M315.439 170.488H312.765V185.178H315.439V170.488Z" fill="#F5F5F5"/>
<path d="M315.439 193.518H312.765V208.207H315.439V193.518Z" fill="#F5F5F5"/>
<path d="M315.439 216.623H312.765V231.313H315.439V216.623Z" fill="#F5F5F5"/>
<path d="M305.889 124.43H303.215V139.12H305.889V124.43Z" fill="#F5F5F5"/>
<path d="M305.889 147.536H303.215V162.225H305.889V147.536Z" fill="#F5F5F5"/>
<path d="M305.889 170.488H303.215V185.178H305.889V170.488Z" fill="#F5F5F5"/>
<path d="M305.889 193.518H303.215V208.207H305.889V193.518Z" fill="#F5F5F5"/>
<path d="M305.889 216.623H303.215V231.313H305.889V216.623Z" fill="#F5F5F5"/>
<path d="M296.339 124.43H293.665V139.12H296.339V124.43Z" fill="#F5F5F5"/>
<path d="M296.339 147.536H293.665V162.225H296.339V147.536Z" fill="#F5F5F5"/>
<path d="M296.339 170.488H293.665V185.178H296.339V170.488Z" fill="#F5F5F5"/>
<path d="M296.339 193.518H293.665V208.207H296.339V193.518Z" fill="#F5F5F5"/>
<path d="M296.339 216.623H293.665V231.313H296.339V216.623Z" fill="#F5F5F5"/>
<path d="M286.713 124.43H284.039V139.12H286.713V124.43Z" fill="#F5F5F5"/>
<path d="M286.713 147.536H284.039V162.225H286.713V147.536Z" fill="#F5F5F5"/>
<path d="M286.713 170.488H284.039V185.178H286.713V170.488Z" fill="#F5F5F5"/>
<path d="M286.713 193.518H284.039V208.207H286.713V193.518Z" fill="#F5F5F5"/>
<path d="M286.713 216.623H284.039V231.313H286.713V216.623Z" fill="#F5F5F5"/>
<path opacity="0.5" d="M273.725 119.38H285.414L290.456 240.418H273.725V119.38Z" fill="#E0E0E0"/>
<path d="M245.762 72.633L279.455 78.9833V240.418H245.762V72.633Z" fill="#F0F0F0"/>
<path d="M245.839 72.633H218.87V240.418H245.839V72.633Z" fill="#E6E6E6"/>
<path d="M279.455 86.5577H218.87V87.3993H279.455V86.5577Z" fill="#E0E0E0"/>
<path d="M279.455 95.6623H218.87V96.5039H279.455V95.6623Z" fill="#E0E0E0"/>
<path d="M279.455 104.843H218.87V105.685H279.455V104.843Z" fill="#E0E0E0"/>
<path d="M279.455 113.948H218.87V114.79H279.455V113.948Z" fill="#E0E0E0"/>
<path d="M279.455 123.053H218.87V123.894H279.455V123.053Z" fill="#E0E0E0"/>
<path d="M279.455 132.234H218.87V133.075H279.455V132.234Z" fill="#E0E0E0"/>
<path d="M279.455 141.338H218.87V142.18H279.455V141.338Z" fill="#E0E0E0"/>
<path d="M279.455 150.519H218.87V151.361H279.455V150.519Z" fill="#E0E0E0"/>
<path d="M279.455 159.624H218.87V160.466H279.455V159.624Z" fill="#E0E0E0"/>
<path d="M279.455 168.729H218.87V169.57H279.455V168.729Z" fill="#E0E0E0"/>
<path d="M279.455 177.91H218.87V178.751H279.455V177.91Z" fill="#E0E0E0"/>
<path d="M279.455 187.014H218.87V187.856H279.455V187.014Z" fill="#E0E0E0"/>
<path d="M279.455 196.195H218.87V197.037H279.455V196.195Z" fill="#E0E0E0"/>
<path d="M279.455 205.3H218.87V206.142H279.455V205.3Z" fill="#E0E0E0"/>
<path d="M279.455 214.405H218.87V215.246H279.455V214.405Z" fill="#E0E0E0"/>
<path d="M279.455 223.586H218.87V224.427H279.455V223.586Z" fill="#E0E0E0"/>
<path d="M279.455 232.69H218.87V233.532H279.455V232.69Z" fill="#E0E0E0"/>
<path d="M204.124 36.9797H175.933V240.418H204.124V36.9797Z" fill="#F0F0F0"/>
<path d="M204.124 36.9797H175.933L186.323 19H226.662L204.124 36.9797Z" fill="#FAFAFA"/>
<path d="M204.124 36.9797L226.662 19V240.418H204.124V36.9797Z" fill="#EBEBEB"/>
<path d="M226.662 46.4668H175.933V47.538H226.662V46.4668Z" fill="#E0E0E0"/>
<path d="M226.662 57.9432H175.933V59.0144H226.662V57.9432Z" fill="#E0E0E0"/>
<path d="M226.662 69.4961H175.933V70.5673H226.662V69.4961Z" fill="#E0E0E0"/>
<path d="M226.662 80.9725H175.933V82.0436H226.662V80.9725Z" fill="#E0E0E0"/>
<path d="M226.662 92.5254H175.933V93.5965H226.662V92.5254Z" fill="#E0E0E0"/>
<path d="M226.662 104.002H175.933V105.073H226.662V104.002Z" fill="#E0E0E0"/>
<path d="M226.662 115.555H175.933V116.626H226.662V115.555Z" fill="#E0E0E0"/>
<path d="M226.662 127.031H175.933V128.102H226.662V127.031Z" fill="#E0E0E0"/>
<path d="M226.662 138.584H175.933V139.655H226.662V138.584Z" fill="#E0E0E0"/>
<path d="M226.662 150.06H175.933V151.132H226.662V150.06Z" fill="#E0E0E0"/>
<path d="M226.662 161.613H175.933V162.684H226.662V161.613Z" fill="#E0E0E0"/>
<path d="M226.662 173.09H175.933V174.161H226.662V173.09Z" fill="#E0E0E0"/>
<path d="M226.662 184.643H175.933V185.714H226.662V184.643Z" fill="#E0E0E0"/>
<path d="M226.662 196.119H175.933V197.19H226.662V196.119Z" fill="#E0E0E0"/>
<path d="M226.662 207.672H175.933V208.743H226.662V207.672Z" fill="#E0E0E0"/>
<path d="M226.662 219.148H175.933V220.219H226.662V219.148Z" fill="#E0E0E0"/>
<path d="M226.662 230.701H175.933V231.772H226.662V230.701Z" fill="#E0E0E0"/>
<path d="M171.043 135.447H140.33V240.418H171.043V135.447Z" fill="#F0F0F0"/>
<path d="M151.332 140.803H146.366V157.635H151.332V140.803Z" fill="#E6E6E6"/>
<path d="M163.403 140.803H158.437V157.635H163.403V140.803Z" fill="#E6E6E6"/>
<path d="M151.332 162.684H146.366V179.516H151.332V162.684Z" fill="#E6E6E6"/>
<path d="M163.403 162.684H158.437V179.516H163.403V162.684Z" fill="#E6E6E6"/>
<path d="M151.332 184.49H146.366V201.322H151.332V184.49Z" fill="#E6E6E6"/>
<path d="M163.403 184.49H158.437V201.322H163.403V184.49Z" fill="#E6E6E6"/>
<path d="M151.332 206.295H146.366V223.127H151.332V206.295Z" fill="#E6E6E6"/>
<path d="M163.403 206.295H158.437V223.127H163.403V206.295Z" fill="#E6E6E6"/>
<path d="M171.043 135.447H140.33L147.512 128.102H178.225L171.043 135.447Z" fill="white"/>
<path d="M171.043 135.447L178.225 128.102L185.483 135.447V240.418H171.043V135.447Z" fill="#E6E6E6"/>
<path d="M286.102 35.526H383.512C387.408 35.526 390.617 38.7394 390.617 42.6414V259.239C390.617 263.141 387.408 266.354 383.512 266.354H286.102C282.205 266.354 278.996 263.141 278.996 259.239V42.6414C278.996 38.6629 282.205 35.526 286.102 35.526Z" fill="#BFA454"/>
<path d="M281.67 35.526H379.08C382.977 35.526 386.186 38.7394 386.186 42.6414V259.239C386.186 263.141 382.977 266.354 379.08 266.354H281.67C277.774 266.354 274.565 263.141 274.565 259.239V42.6414C274.642 38.6629 277.774 35.526 281.67 35.526Z" fill="#BFA454"/>
<path opacity="0.7" d="M281.67 35.526H379.08C382.977 35.526 386.186 38.7394 386.186 42.6414V259.239C386.186 263.141 382.977 266.354 379.08 266.354H281.67C277.774 266.354 274.565 263.141 274.565 259.239V42.6414C274.642 38.6629 277.774 35.526 281.67 35.526Z" fill="white"/>
<g opacity="0.9">
<path opacity="0.9" d="M297.027 35.526H290.991V266.278H297.027V35.526Z" fill="white"/>
<path opacity="0.9" d="M360.974 35.526H357.23V266.278H360.974V35.526Z" fill="white"/>
<path opacity="0.9" d="M274.642 85.6396V91.6838L386.262 84.798V78.7537L274.642 85.6396Z" fill="white"/>
<path opacity="0.9" d="M386.262 228.635H274.642V234.68H386.262V228.635Z" fill="white"/>
<path opacity="0.9" d="M386.186 115.861H274.565V119.151H386.186V115.861Z" fill="white"/>
<path opacity="0.9" d="M274.642 193.9V200.786L386.262 162.99V156.028L274.642 193.9Z" fill="white"/>
<path opacity="0.9" d="M313.758 35.526H307.646L323.92 266.278H329.955L313.758 35.526Z" fill="white"/>
</g>
<path d="M366.78 242.637H233.92V201.169H351.042L361.967 210.044C365.023 212.568 366.78 216.241 366.78 220.219V242.637Z" fill="#BFA454"/>
<path opacity="0.5" d="M366.78 242.637H233.92V201.169H351.042L361.967 210.044C365.023 212.568 366.78 216.241 366.78 220.219V242.637Z" fill="black"/>
<path d="M233.156 238.888C233.156 223.739 240.032 211.497 248.436 211.497H232.24C223.759 211.497 216.96 223.739 216.96 238.888C216.96 254.036 223.836 266.278 232.24 266.278H248.513C239.956 266.278 233.156 254.036 233.156 238.888Z" fill="#263238"/>
<path d="M248.436 266.278C256.875 266.278 263.716 254.015 263.716 238.888C263.716 223.76 256.875 211.497 248.436 211.497C239.998 211.497 233.156 223.76 233.156 238.888C233.156 254.015 239.998 266.278 248.436 266.278Z" fill="#263238"/>
<path d="M249.659 260.234C255.65 260.234 260.508 250.677 260.508 238.888C260.508 227.098 255.65 217.542 249.659 217.542C243.667 217.542 238.81 227.098 238.81 238.888C238.81 250.677 243.667 260.234 249.659 260.234Z" fill="white"/>
<path d="M144.838 238.888C144.838 223.739 151.714 211.497 160.118 211.497H143.921C135.441 211.497 128.641 223.739 128.641 238.888C128.641 254.036 135.517 266.278 143.921 266.278H160.194C151.714 266.278 144.838 254.036 144.838 238.888Z" fill="#263238"/>
<path d="M160.194 266.278C168.633 266.278 175.474 254.015 175.474 238.888C175.474 223.76 168.633 211.497 160.194 211.497C151.756 211.497 144.914 223.76 144.914 238.888C144.914 254.015 151.756 266.278 160.194 266.278Z" fill="#263238"/>
<path d="M338.054 238.888C338.054 223.739 344.93 211.497 353.334 211.497H337.137C328.656 211.497 321.857 223.739 321.857 238.888C321.857 254.036 328.733 266.278 337.137 266.278H353.41C344.93 266.278 338.054 254.036 338.054 238.888Z" fill="#263238"/>
<path d="M353.334 266.278C361.773 266.278 368.614 254.015 368.614 238.888C368.614 223.76 361.773 211.497 353.334 211.497C344.895 211.497 338.054 223.76 338.054 238.888C338.054 254.015 344.895 266.278 353.334 266.278Z" fill="#263238"/>
<path d="M354.556 260.234C360.548 260.234 365.405 250.677 365.405 238.888C365.405 227.098 360.548 217.542 354.556 217.542C348.564 217.542 343.707 227.098 343.707 238.888C343.707 250.677 348.564 260.234 354.556 260.234Z" fill="white"/>
<path d="M215.05 246.539H195.415L194.345 245.467C193.199 244.32 191.671 243.708 190.067 243.708H140.942C139.337 243.708 137.809 244.32 136.663 245.467L135.976 246.156H134.218C128.412 246.156 123.675 241.412 123.675 235.598C123.675 235.598 123.675 235.598 123.675 235.521V219.378H235.066L226.204 238.658C224.523 243.402 220.016 246.539 215.05 246.539Z" fill="#BFA454"/>
<path opacity="0.2" d="M215.05 246.539H195.415L194.345 245.467C193.199 244.32 191.671 243.708 190.067 243.708H140.942C139.337 243.708 137.809 244.32 136.663 245.467L135.976 246.156H134.218C128.412 246.156 123.675 241.412 123.675 235.598C123.675 235.598 123.675 235.598 123.675 235.521V219.378H235.066L226.204 238.658C224.523 243.402 220.016 246.539 215.05 246.539Z" fill="black"/>
<path d="M331.025 150.366C330.949 150.366 330.872 150.366 330.872 150.29C330.719 150.213 330.643 149.984 330.719 149.754L336.067 140.573C336.144 140.344 336.373 140.267 336.602 140.42C336.831 140.573 336.908 140.726 336.755 140.956C336.755 140.956 336.755 141.032 336.679 141.032L331.331 150.213C331.254 150.29 331.101 150.366 331.025 150.366Z" fill="#263238"/>
<path d="M359.216 196.042V185.637C359.216 180.129 351.271 154.268 340.269 149.448C329.268 144.628 302.833 142.409 286.178 143.328C269.523 144.246 247.214 179.134 247.214 179.134L249.659 209.202C253.02 209.202 263.869 208.207 265.474 237.893C265.703 242.254 269.294 245.697 273.648 245.62H332.094C336.144 245.62 339.582 242.637 340.116 238.582C341.644 227.947 345.617 209.126 355.244 209.126C361.967 209.126 366.856 214.94 366.856 221.52C366.856 214.252 365.099 207.06 361.738 200.633L359.216 196.042Z" fill="#BFA454"/>
<path d="M225.058 143.251C194.651 143.251 160.271 179.057 160.271 179.057H247.29C247.29 179.057 269.523 144.093 286.254 143.251H225.058Z" fill="#BFA454"/>
<path opacity="0.4" d="M226.892 143.251C201.298 143.251 174.481 168.652 166.612 176.686C166.077 177.221 166.077 178.139 166.612 178.675C166.841 178.904 167.223 179.057 167.605 179.057H237.817C243.547 179.057 248.971 176.38 252.333 171.712C259.896 161.384 274.412 143.863 286.178 143.175L226.892 143.251Z" fill="white"/>
<path d="M247.214 179.057L215.05 204.458L128.565 204.152C128.565 204.152 123.599 211.421 123.599 219.301H234.99C236.824 214.481 243.241 209.126 249.582 209.126C249.659 200.097 247.214 179.057 247.214 179.057Z" fill="#BFA454"/>
<path opacity="0.2" d="M226.204 196.961C226.051 196.961 225.822 196.808 225.822 196.655C225.822 196.425 225.975 196.272 226.128 196.195C233.844 194.971 241.026 191.605 246.985 186.479C249.43 184.413 249.888 180.894 248.054 178.292C247.902 178.139 247.978 177.91 248.131 177.757C248.284 177.604 248.513 177.68 248.666 177.833C250.652 180.741 250.117 184.796 247.443 187.091C241.484 192.294 234.15 195.736 226.204 196.961Z" fill="black"/>
<path d="M128.641 204.229C128.641 204.229 143.845 186.479 160.271 179.134H247.29L215.126 204.535L128.641 204.229Z" fill="#BFA454"/>
<path d="M195.95 204.229H138.879V205.912H195.95V204.229Z" fill="#263238"/>
<path d="M194.727 200.863L197.783 197.802C198.471 197.114 199.311 196.654 200.304 196.425L223.377 191.375C224.218 191.222 225.058 191.222 225.822 191.452L227.044 191.834C229.718 192.599 231.323 195.43 230.559 198.108C230.33 198.797 230.024 199.485 229.489 200.097L224.523 205.759C223.683 206.754 222.46 207.366 221.162 207.442L198.776 209.508C197.248 209.661 195.797 209.126 194.727 208.054C192.741 206.065 192.741 202.852 194.727 200.863Z" fill="white"/>
<path d="M140.483 202.546L137.962 197.802C137.58 197.114 137.045 196.578 136.434 196.195C135.212 195.43 133.684 195.43 132.385 196.119L130.475 197.114C129.558 197.649 128.794 198.491 128.488 199.485L127.342 202.928C126.578 205.071 127.724 207.442 129.94 208.207C130.169 208.284 130.322 208.36 130.551 208.36L135.823 209.279C137.58 209.585 139.337 208.743 140.178 207.136L140.56 206.448C141.171 205.224 141.094 203.77 140.483 202.546Z" fill="white"/>
<path opacity="0.4" d="M265.015 180.128H345.464C347.909 180.128 349.819 178.139 349.819 175.767C349.819 175.308 349.743 174.926 349.666 174.467C347.833 168.346 344.318 158.782 339.047 153.886C338.436 153.35 337.748 152.968 336.984 152.815C327.51 150.825 312.23 149.448 300.923 148.683C290.533 147.995 280.372 151.82 273.114 159.241C268.835 163.602 264.939 168.346 261.501 173.396C260.202 175.385 260.737 177.986 262.723 179.363C263.334 179.822 264.175 180.128 265.015 180.128Z" fill="white"/>
<path d="M212.987 228.329C212.987 230.854 210.389 232.92 207.257 232.92C204.124 232.92 201.527 230.854 201.527 228.329C201.527 225.805 204.124 223.815 207.257 223.815C210.389 223.815 212.987 225.805 212.987 228.329Z" fill="#263238"/>
<path d="M166.841 200.709C168.751 200.709 169.668 202.622 168.904 204.994C168.14 207.366 166.001 209.279 164.167 209.279C162.334 209.279 161.34 207.366 162.104 204.994C162.868 202.622 164.931 200.709 166.841 200.709Z" fill="#263238"/>
<path d="M128.259 228.329C128.259 230.854 127.495 232.92 126.655 232.92C125.814 232.92 125.05 230.854 125.05 228.329C125.05 225.805 125.814 223.815 126.655 223.815C127.495 223.815 128.259 225.805 128.259 228.329Z" fill="#263238"/>
<path d="M262.494 179.363V176.762C262.494 174.008 264.71 171.789 267.46 171.789C267.766 171.789 268.148 171.789 268.453 171.866L278.232 173.931C280.524 174.39 282.205 176.456 282.205 178.828V179.363C282.205 182.118 279.99 184.337 277.239 184.337H267.46C264.786 184.337 262.494 182.118 262.494 179.363Z" fill="#263238"/>
<path d="M314.064 149.754C314.064 149.754 312.765 149.601 310.473 149.448C320.558 170.106 317.96 180.129 317.96 180.129H325.677C325.753 167.504 314.064 149.754 314.064 149.754Z" fill="#263238"/>
<path opacity="0.2" d="M229.107 170.871C228.802 174.237 225.975 176.839 222.613 176.839H183.038C180.135 176.839 179.142 173.625 181.204 171.177C184.948 166.892 189.074 162.837 193.505 159.165C200.992 152.891 210.236 149.601 218.87 150.213L222.155 150.443C225.058 150.672 227.426 152.738 228.038 155.646C229.184 160.619 229.566 165.745 229.107 170.871Z" fill="#BFA454"/>
<path opacity="0.2" d="M318.877 240.188C318.648 240.188 318.495 240.035 318.495 239.806C318.495 232.078 322.468 200.097 323.461 195.354C324.454 190.687 324.454 185.484 323.461 182.118C323.385 181.888 323.538 181.735 323.69 181.659C323.92 181.582 324.072 181.735 324.149 181.888C325.218 185.408 325.218 190.687 324.149 195.507C323.079 200.327 319.183 232.078 319.183 239.806C319.259 239.959 319.106 240.188 318.877 240.188Z" fill="black"/>
<path opacity="0.2" d="M317.884 195.736H308.563C307.952 195.736 307.417 195.277 307.341 194.589C307.341 194.512 307.341 194.359 307.341 194.283L307.494 193.212C307.646 192.447 308.334 191.834 309.174 191.758H318.495C319.106 191.758 319.641 192.217 319.718 192.906C319.718 192.982 319.718 193.135 319.718 193.212L319.565 194.283C319.412 195.124 318.724 195.736 317.884 195.736Z" fill="black"/>
<path d="M346.076 79.8249H345.312C345.312 77.9121 345.006 75.9229 344.471 74.0867L345.235 73.8571C345.77 75.7699 346.076 77.7591 346.076 79.8249ZM342.79 70.0317C339.2 63.6049 332.476 59.6264 325.142 59.6264V58.8613C332.706 58.8613 339.734 62.9928 343.402 69.6491L342.79 70.0317Z" fill="#BFA454"/>
<path d="M325.142 61.5392C315.057 61.5392 306.882 69.7256 306.882 79.8249C306.882 97.422 325.142 109.51 325.142 109.51C325.142 109.51 343.402 97.422 343.402 79.8249C343.402 69.7256 335.227 61.5392 325.142 61.5392ZM325.142 88.3939C320.405 88.3939 316.662 84.5684 316.662 79.9014C316.662 75.2343 320.482 71.4089 325.142 71.4089C329.802 71.4089 333.622 75.2343 333.622 79.9014C333.622 84.5684 329.879 88.3939 325.142 88.3939Z" fill="#BFA454"/>
<path d="M292.672 265.13L297.256 265.054L298.631 254.343L293.971 254.419L292.672 265.13Z" fill="#B55B52"/>
<path d="M314.675 264.824L319.183 263.447L316.356 253.271L311.925 254.649L314.675 264.824Z" fill="#B55B52"/>
<path d="M319.03 262.07L314.064 264.671C313.911 264.748 313.835 264.977 313.835 265.13L314.904 269.185C314.981 269.568 315.363 269.797 315.745 269.644C315.821 269.644 315.821 269.644 315.898 269.568C317.502 268.726 318.648 268.038 320.634 266.967C321.857 266.354 325.677 264.518 327.434 263.6C329.191 262.682 328.504 260.922 327.74 261.075C324.225 261.993 321.322 262.299 319.87 261.917C319.565 261.917 319.259 261.993 319.03 262.07Z" fill="#263238"/>
<path d="M297.332 264.518L292.29 264.595C292.137 264.595 291.908 264.748 291.908 264.901L291.068 269.032C290.991 269.415 291.22 269.721 291.602 269.797C291.679 269.797 291.679 269.797 291.755 269.797C293.589 269.721 296.186 269.568 298.478 269.568C301.152 269.568 301.916 269.644 305.049 269.568C306.959 269.568 307.417 267.579 306.653 267.426C303.062 266.66 301.611 266.66 298.478 264.748C298.173 264.671 297.714 264.518 297.332 264.518Z" fill="#263238"/>
<path d="M304.361 124.659C305.431 126.802 306.577 129.02 307.799 131.086C309.022 133.152 310.244 135.294 311.543 137.283C311.925 137.742 312.23 138.278 312.536 138.737L313.376 139.885C313.529 140.114 313.682 140.191 313.682 140.267C313.682 140.344 313.758 140.42 313.988 140.42C314.828 140.267 315.516 139.885 316.203 139.349C316.585 139.043 317.044 138.66 317.502 138.278C317.96 137.895 318.342 137.436 318.724 137.054L321.78 138.737C321.551 139.426 321.246 140.038 320.864 140.726C320.558 141.338 320.1 142.027 319.718 142.562C319.259 143.175 318.724 143.787 318.113 144.322C317.426 144.934 316.585 145.47 315.668 145.776C314.522 146.158 313.376 146.235 312.154 145.929C311.084 145.699 310.091 145.164 309.251 144.399C309.098 144.246 308.869 144.093 308.716 143.94L308.487 143.71L308.334 143.481L307.646 142.715C307.188 142.18 306.806 141.644 306.348 141.185C304.743 139.12 303.215 136.901 301.84 134.606C301.152 133.458 300.465 132.31 299.93 131.163C299.395 130.015 298.708 128.867 298.173 127.567L304.361 124.659Z" fill="#B55B52"/>
<path d="M296.11 124.659C294.888 128.867 303.597 140.42 303.597 140.42L312.383 134.759C310.702 131.086 308.64 127.567 306.271 124.353C302.68 119.763 297.485 119.992 296.11 124.659Z" fill="#BFA454"/>
<g opacity="0.2">
<path opacity="0.2" d="M296.11 124.659C294.888 128.867 303.597 140.42 303.597 140.42L312.383 134.759C310.702 131.086 308.64 127.567 306.271 124.353C302.68 119.763 297.485 119.992 296.11 124.659Z" fill="black"/>
</g>
<path opacity="0.2" d="M301.458 129.632C303.292 130.398 305.966 134.759 307.341 138.048L303.597 140.42C301.534 137.589 299.624 134.682 297.944 131.545C299.166 130.321 300.541 129.25 301.458 129.632Z" fill="black"/>
<path d="M318.113 137.972L321.322 132.769L324.072 137.207C323.385 138.431 322.315 139.273 321.016 139.732L318.113 137.972Z" fill="#B55B52"/>
<path d="M325.753 132.846V134.452C325.753 134.988 325.6 135.447 325.295 135.83L324.149 137.283L321.398 132.846L324.302 131.775C324.913 131.545 325.6 131.851 325.83 132.463C325.753 132.54 325.753 132.693 325.753 132.846Z" fill="#B55B52"/>
<path d="M322.621 139.426L317.655 139.349L320.405 128.944L325.448 129.02L322.621 139.426Z" fill="#BFA454"/>
<path d="M323.156 139.426L318.113 139.349L320.94 128.944L325.982 129.02L323.156 139.426Z" fill="#263238"/>
<path opacity="0.2" d="M298.631 254.343L297.944 259.851L293.283 259.928L293.971 254.419L298.631 254.343Z" fill="black"/>
<path opacity="0.2" d="M311.925 254.649L316.356 253.271L317.808 258.474L313.3 259.928L311.925 254.649Z" fill="black"/>
<path d="M276.628 126.878C280.372 143.098 279.608 159.241 279.99 162.684L304.59 160.848C306.959 134.452 301.382 121.063 301.382 121.063C301.382 121.063 299.777 120.757 297.638 120.528C296.95 120.451 296.263 120.375 295.499 120.375C295.117 120.375 294.658 120.298 294.2 120.298C290.686 120.375 287.248 120.604 283.733 121.063C283.046 121.14 282.434 121.216 281.747 121.369L279.99 121.675H279.913C277.621 122.135 276.093 124.353 276.552 126.725C276.628 126.802 276.628 126.802 276.628 126.878Z" fill="#BFA454"/>
<g opacity="0.2">
<path opacity="0.2" d="M276.628 126.878C280.372 143.098 279.608 159.241 279.99 162.684L304.59 160.848C306.959 134.452 301.382 121.063 301.382 121.063C301.382 121.063 299.777 120.757 297.638 120.528C296.95 120.451 296.263 120.375 295.499 120.375C295.117 120.375 294.658 120.298 294.2 120.298C290.686 120.375 287.248 120.604 283.733 121.063C283.046 121.14 282.434 121.216 281.747 121.369L279.99 121.675H279.913C277.621 122.135 276.093 124.353 276.552 126.725C276.628 126.802 276.628 126.802 276.628 126.878Z" fill="black"/>
</g>
<path opacity="0.2" d="M280.83 130.321L278.003 133.993C278.003 134.07 278.003 134.07 278.003 134.146C278.385 136.595 278.691 139.043 278.92 141.338C281.594 137.895 281.212 131.928 280.83 130.321Z" fill="black"/>
<path d="M284.956 113.948C285.567 116.396 285.49 119.151 283.733 121.14C285.72 122.823 288.241 124.736 292.214 124.583C296.186 124.43 295.346 121.752 294.124 120.375C290.686 119.839 290.686 117.62 290.686 115.172C290.686 114.637 290.38 114.178 289.845 114.101L286.102 112.877C285.643 112.724 285.108 113.03 284.956 113.489C284.879 113.565 284.879 113.718 284.956 113.948Z" fill="#B55B52"/>
<path d="M295.728 140.42C293.665 140.42 291.755 137.972 291.373 134.759C291.068 133.075 291.526 131.316 292.519 129.938C292.978 129.326 293.742 129.02 294.506 129.02C296.568 129.02 298.478 131.469 298.86 134.682C299.166 136.365 298.784 138.125 297.714 139.502C297.18 140.038 296.492 140.42 295.728 140.42ZM294.506 129.785C293.971 129.785 293.436 130.015 293.13 130.474C292.29 131.698 291.908 133.228 292.214 134.682C292.519 137.36 294.124 139.655 295.804 139.655C296.339 139.655 296.874 139.426 297.18 138.967C298.02 137.742 298.402 136.212 298.096 134.759C297.791 132.004 296.11 129.785 294.506 129.785Z" fill="#BFA454"/>
<path opacity="0.2" d="M290.686 115.249L286.866 115.708C286.942 115.861 287.018 116.014 287.171 116.167C287.859 117.314 289.463 118.079 291.068 118.386C290.762 117.391 290.609 116.32 290.686 115.249Z" fill="black"/>
<path d="M295.575 105.455C297.714 105.838 301.611 103.39 300.694 100.253C299.548 101.707 295.575 101.247 295.575 101.247V105.455Z" fill="#263238"/>
<path d="M287.4 108.822C287.63 110.964 285.032 114.713 281.9 113.642C283.428 112.571 283.198 108.592 283.198 108.592L287.4 108.822Z" fill="#263238"/>
<path d="M284.344 104.69C283.81 109.204 283.198 111.882 285.032 114.637C287.782 118.768 293.742 117.697 295.652 113.412C297.332 109.587 298.02 102.778 293.971 100.176C291.068 98.2636 287.248 99.1052 285.338 102.013C284.726 102.854 284.421 103.772 284.344 104.69Z" fill="#B55B52"/>
<path d="M283.657 109.281C284.803 110.429 287.782 105.685 287.248 103.925C288.394 104.461 290.609 103.466 290.456 101.553C293.894 103.39 298.86 104.843 298.937 101.553C299.013 98.2636 295.881 95.7388 292.825 95.5093C293.207 96.5039 292.214 96.8864 290.227 96.5039C288.241 96.1213 280.524 92.5254 281.365 99.6408C278.538 99.7938 278.156 103.466 283.657 109.281Z" fill="#263238"/>
<path d="M281.441 107.521C281.594 108.669 282.205 109.663 283.122 110.429C284.344 111.347 285.108 110.352 285.261 108.975C285.338 107.674 285.261 105.608 283.81 105.302C282.74 105.073 281.747 105.762 281.518 106.756C281.365 106.986 281.365 107.215 281.441 107.521Z" fill="#B55B52"/>
<path d="M288.394 162.072L304.59 160.848C304.59 160.848 306.653 194.053 306.5 208.131C306.348 222.821 299.624 258.704 299.624 258.704L291.832 258.857C291.832 258.857 292.443 223.968 292.443 209.585C292.443 190.304 288.394 162.072 288.394 162.072Z" fill="#263238"/>
<path opacity="0.2" d="M294.658 196.578C294.888 197.496 300.847 224.504 302.833 240.188C303.903 233.685 304.896 226.34 305.66 219.837L294.658 196.578Z" fill="black"/>
<path d="M295.804 161.537C295.804 161.537 308.105 191.758 310.855 204.994C313.911 219.531 318.801 256.179 318.801 256.179L310.473 257.479C310.473 257.479 304.132 230.089 300.618 216.088C296.568 200.097 280.677 174.849 279.99 162.761L295.804 161.537Z" fill="#263238"/>
<path d="M319.87 256.867L309.48 259.239L308.181 255.261L319.488 253.348L319.87 256.867Z" fill="#BFA454"/>
<path d="M300.618 258.933L291.297 259.086L291.22 256.102L301.687 255.796L300.618 258.933Z" fill="#BFA454"/>
<path d="M290.686 107.062C290.609 107.445 290.762 107.751 290.991 107.827C291.22 107.904 291.45 107.598 291.526 107.215C291.602 106.833 291.45 106.527 291.22 106.45C290.991 106.374 290.686 106.68 290.686 107.062Z" fill="#263238"/>
<path d="M295.193 107.98C295.117 108.363 295.27 108.669 295.499 108.745C295.728 108.822 295.957 108.516 296.034 108.133C296.11 107.751 295.957 107.445 295.728 107.368C295.499 107.292 295.27 107.674 295.193 107.98Z" fill="#263238"/>
<path d="M293.665 107.904C293.894 109.128 294.276 110.276 294.811 111.347C294.2 111.576 293.589 111.576 292.978 111.347L293.665 107.904Z" fill="#A02724"/>
<path d="M292.29 112.494C291.45 112.341 290.762 111.806 290.304 111.117C290.304 111.041 290.304 110.964 290.38 110.964C290.456 110.964 290.533 110.964 290.533 111.041C291.068 111.806 291.908 112.341 292.825 112.418C292.901 112.418 292.901 112.494 292.901 112.571C292.901 112.647 292.825 112.647 292.825 112.647C292.596 112.571 292.443 112.571 292.29 112.494Z" fill="#263238"/>
<path d="M290.227 105.379C290.227 105.379 290.151 105.379 290.151 105.302C290.074 105.226 290.074 105.073 290.151 104.996C290.686 104.537 291.373 104.308 292.061 104.461C292.214 104.461 292.214 104.614 292.214 104.767C292.214 104.843 292.061 104.92 291.984 104.92C291.45 104.843 290.838 104.996 290.456 105.379C290.304 105.379 290.227 105.455 290.227 105.379Z" fill="#263238"/>
<path d="M297.638 106.909C297.562 106.909 297.485 106.833 297.485 106.756C297.332 106.221 296.95 105.762 296.492 105.532C296.339 105.532 296.339 105.379 296.339 105.226C296.339 105.073 296.492 105.073 296.645 105.073C297.332 105.302 297.791 105.915 297.944 106.603C297.944 106.68 297.944 106.833 297.791 106.833C297.714 106.909 297.638 106.909 297.638 106.909Z" fill="#263238"/>
<path d="M320.711 262.07C320.329 262.223 319.947 262.376 319.565 262.452H319.488C319.488 262.452 319.488 262.376 319.488 262.299C319.565 262.146 320.482 260.616 321.093 260.616C321.246 260.616 321.322 260.693 321.398 260.769C321.551 260.922 321.551 261.152 321.475 261.381C321.246 261.764 321.016 261.993 320.711 262.07ZM319.794 262.223C320.329 262.146 320.864 261.84 321.246 261.381C321.322 261.228 321.246 261.075 321.169 260.999C321.093 260.922 321.093 260.922 321.016 260.922C320.787 260.922 320.176 261.611 319.794 262.223Z" fill="#BFA454"/>
<path d="M319.641 262.529C319.565 262.529 319.488 262.529 319.488 262.453C319.183 261.84 319.106 261.152 319.259 260.54C319.336 260.387 319.488 260.234 319.641 260.157C319.794 260.081 319.947 260.157 320.1 260.234C320.329 260.693 320.023 261.993 319.641 262.529C319.641 262.452 319.641 262.452 319.641 262.529ZM319.641 260.387C319.565 260.463 319.488 260.463 319.488 260.616C319.412 261.152 319.488 261.687 319.641 262.146C319.87 261.611 320.1 260.616 319.87 260.387C319.87 260.387 319.794 260.31 319.641 260.387Z" fill="#BFA454"/>
<path d="M297.791 265.207C297.714 265.207 297.714 265.13 297.714 265.054C297.714 265.054 297.714 264.977 297.791 264.977C298.02 264.901 299.854 263.906 300.388 264.212C300.465 264.289 300.541 264.365 300.541 264.518C300.541 264.748 300.465 264.901 300.312 265.054C299.93 265.513 298.631 265.36 297.791 265.207ZM300.312 264.365C299.548 264.442 298.86 264.595 298.249 264.977C298.937 265.207 299.701 265.13 300.312 264.824C300.388 264.748 300.465 264.595 300.465 264.442C300.388 264.442 300.388 264.365 300.312 264.365Z" fill="#BFA454"/>
<path d="M297.791 265.207L297.714 265.13C297.791 264.442 298.02 263.83 298.402 263.371C298.555 263.218 298.784 263.141 299.013 263.141C299.319 263.141 299.395 263.294 299.395 263.447C299.472 263.983 298.402 264.977 297.867 265.207C297.944 265.207 297.867 265.207 297.791 265.207ZM299.09 263.294H299.013C298.86 263.294 298.708 263.294 298.555 263.447C298.249 263.83 298.02 264.365 297.944 264.901C298.478 264.518 299.242 263.753 299.166 263.447C299.242 263.371 299.242 263.371 299.09 263.294Z" fill="#BFA454"/>
<path d="M283.962 128.332C282.434 131.086 280.906 133.917 279.531 136.824C278.156 139.579 276.934 142.486 276.017 145.47C275.94 145.852 275.788 146.158 275.711 146.541C275.711 146.694 275.635 146.923 275.558 147C275.558 147.077 275.482 147.153 275.482 147.306C275.406 147.765 275.406 148.301 275.482 148.76C275.788 150.06 276.322 151.361 277.01 152.509C278.614 155.186 280.448 157.711 282.511 160.007L280.295 162.684C277.316 160.695 274.718 158.323 272.502 155.493C271.28 153.962 270.363 152.203 269.676 150.29C269.294 149.142 269.141 147.995 269.217 146.847C269.217 146.541 269.294 146.235 269.294 145.929C269.294 145.623 269.37 145.47 269.446 145.24C269.523 144.781 269.599 144.322 269.752 143.863C270.592 140.497 271.738 137.13 273.19 133.993C274.565 130.857 276.17 127.796 277.927 124.889L283.962 128.332Z" fill="#B55B52"/>
<path d="M279.149 122.058C274.871 123.206 270.745 135.218 270.745 135.218L280.983 138.048C282.74 135.524 284.192 132.769 285.261 129.862C287.4 124.047 284.344 120.681 279.149 122.058Z" fill="#BFA454"/>
<g opacity="0.2">
<path opacity="0.2" d="M279.149 122.058C274.871 123.206 270.745 135.218 270.745 135.218L280.983 138.048C282.74 135.524 284.192 132.769 285.261 129.862C287.4 124.047 284.344 120.681 279.149 122.058Z" fill="black"/>
</g>
<path d="M280.601 159.088L285.261 160.313L283.428 164.75C283.428 164.75 279.226 163.832 279.226 161.613L280.601 159.088Z" fill="#B55B52"/>
<path d="M287.018 163.296L285.643 166.816L283.428 164.75L285.261 160.389L287.018 163.296Z" fill="#B55B52"/>
</g>
</svg>
