<svg width="24" height="24" viewBox="0 0 24 24" fill="none" xmlns="http://www.w3.org/2000/svg">
<g clip-path="url(#clip0)">
<path d="M18.1796 9.25409H17.493V6.50761C17.493 3.47824 15.0294 1.01465 12 1.01465C8.97063 1.01465 6.50704 3.47824 6.50704 6.50761V9.25409H5.82042C4.68521 9.25409 3.76056 10.1778 3.76056 11.3139V20.9266C3.76056 22.0627 4.68521 22.9865 5.82042 22.9865H18.1796C19.3148 22.9865 20.2394 22.0627 20.2394 20.9266V11.3139C20.2394 10.1778 19.3148 9.25409 18.1796 9.25409ZM8.33803 6.50761C8.33803 4.48803 9.98042 2.84563 12 2.84563C14.0196 2.84563 15.662 4.48803 15.662 6.50761V9.25409H8.33803V6.50761ZM12.9155 16.3235V18.409C12.9155 18.9144 12.5063 19.3245 12 19.3245C11.4937 19.3245 11.0845 18.9144 11.0845 18.409V16.3235C10.5398 16.0058 10.169 15.4218 10.169 14.747C10.169 13.7373 10.9902 12.9161 12 12.9161C13.0098 12.9161 13.831 13.7373 13.831 14.747C13.831 15.4218 13.4602 16.0058 12.9155 16.3235Z" fill="#2E2E2E"/>
</g>
<defs>
<clipPath id="clip0">
<rect width="21.9718" height="21.9718" fill="white" transform="translate(1.01408 1.01465)"/>
</clipPath>
</defs>
</svg>
