<svg width="298" height="116" viewBox="0 0 298 116" fill="none" xmlns="http://www.w3.org/2000/svg">
<g clip-path="url(#clip0)">
<path d="M3.75017 94.146H20.0009L18.9592 100.182H11.1116L10.6949 102.402H18.2647L17.3619 107.397H9.86157L9.51433 109.548H17.3619L16.3202 115.584H0L3.75017 94.146Z" fill="black"/>
<path d="M30.4875 115.584L30.2792 109.062H28.8208L26.3901 115.584H17.5008L22.9177 104.691L21.7371 94.146H30.557L30.0708 102.679H31.182L33.7516 94.146H42.5714L37.7101 104.622L39.3074 115.584H30.4875Z" fill="black"/>
<path d="M62.5029 95.8111C63.4057 96.9211 63.6141 98.7943 63.1974 101.361L62.6418 104.483C62.2251 107.05 61.3223 108.854 60.0028 110.034C58.6833 111.213 56.8082 111.768 54.3081 111.768H49.794L49.0995 115.584H40.8352L44.5854 94.146H57.4332C59.9333 94.146 61.6001 94.701 62.5029 95.8111ZM54.7248 101.916C54.7942 101.5 54.7942 101.153 54.6553 101.014C54.5164 100.876 54.2386 100.806 53.8914 100.806H51.8774L51.1135 105.246H53.1275C53.5442 105.246 53.8219 105.177 53.9608 105.038C54.0997 104.9 54.2386 104.622 54.3081 104.206L54.7248 101.916Z" fill="black"/>
<path d="M82.6427 107.466C83.4067 108.23 83.615 109.409 83.3372 110.935L82.5038 115.514H73.8923L74.6563 111.282C74.7951 110.45 74.5174 110.103 73.8229 110.103H71.7395L70.7672 115.514H62.4335L66.1836 94.0765H78.8231C81.2538 94.0765 82.99 94.5622 84.0317 95.5335C85.0734 96.5048 85.3512 97.9617 85.004 100.043L84.8651 100.876C84.5873 102.402 83.9622 103.581 82.9205 104.483C81.8788 105.316 80.4899 105.801 78.7537 105.871L78.6842 106.218C80.6288 106.287 81.9483 106.703 82.6427 107.466ZM72.7812 104.344H74.7951C75.2118 104.344 75.4896 104.275 75.698 104.067C75.9063 103.859 76.0452 103.581 76.1147 103.096L76.4619 101.153C76.5313 100.737 76.5313 100.459 76.323 100.321C76.1841 100.182 75.9063 100.112 75.4896 100.112H73.5451L72.7812 104.344Z" fill="black"/>
<path d="M88.5458 94.146H104.797L103.755 100.182H95.8378L95.4211 102.402H102.991L102.088 107.397H94.5183L94.1711 109.548H102.088L101.046 115.584H84.7262L88.5458 94.146Z" fill="black"/>
<path d="M111.325 109.479C111.672 109.479 111.95 109.409 112.089 109.27C112.297 109.132 112.436 108.923 112.436 108.646C112.505 108.299 112.436 108.022 112.366 107.883C112.227 107.744 112.019 107.605 111.602 107.536L109.172 107.05C107.991 106.842 107.019 106.495 106.394 106.01C105.699 105.524 105.283 104.9 105.074 104.067C104.866 103.234 104.866 102.124 105.144 100.668C105.422 99.0024 105.977 97.6149 106.672 96.6436C107.366 95.6029 108.408 94.8398 109.658 94.3541C110.908 93.8685 112.505 93.5909 114.45 93.5909C117.436 93.5909 120.006 93.8685 122.089 94.3541L121.047 100.112C119.381 100.112 117.158 100.112 114.38 100.112C113.964 100.112 113.616 100.182 113.408 100.321C113.2 100.459 113.061 100.668 112.991 101.014C112.922 101.292 112.991 101.5 113.061 101.639C113.2 101.778 113.408 101.847 113.755 101.916L116.255 102.61C117.505 102.957 118.478 103.373 119.103 103.859C119.797 104.345 120.214 105.038 120.422 105.871C120.631 106.703 120.631 107.813 120.353 109.132C119.936 111.629 118.964 113.364 117.505 114.474C116.047 115.514 113.825 116.069 110.977 116.069C109.38 116.069 107.991 116 106.811 115.861C105.63 115.723 104.31 115.514 102.713 115.167L103.755 109.548C105.63 109.478 108.13 109.479 111.325 109.479Z" fill="black"/>
<path d="M129.242 109.479C129.589 109.479 129.867 109.409 130.006 109.27C130.214 109.132 130.353 108.923 130.353 108.646C130.423 108.299 130.353 108.022 130.284 107.883C130.145 107.744 129.937 107.605 129.52 107.536L127.089 107.05C125.909 106.842 124.936 106.495 124.311 106.01C123.617 105.524 123.2 104.9 122.992 104.067C122.783 103.234 122.783 102.124 123.061 100.668C123.339 99.0024 123.895 97.6149 124.589 96.6436C125.284 95.6029 126.325 94.8398 127.575 94.3541C128.825 93.8685 130.423 93.5909 132.367 93.5909C135.354 93.5909 137.923 93.8685 140.007 94.3541L138.965 100.112C137.298 100.112 135.076 100.112 132.298 100.112C131.881 100.112 131.534 100.182 131.326 100.321C131.117 100.459 130.978 100.668 130.909 101.014C130.839 101.292 130.909 101.5 130.978 101.639C131.117 101.778 131.326 101.847 131.673 101.916L134.173 102.61C135.423 102.957 136.395 103.373 137.02 103.859C137.715 104.345 138.131 105.038 138.34 105.871C138.548 106.703 138.548 107.813 138.27 109.132C137.854 111.629 136.881 113.364 135.423 114.474C133.965 115.514 131.742 116.069 128.895 116.069C127.298 116.069 125.909 116 124.728 115.861C123.547 115.723 122.228 115.514 120.631 115.167L121.672 109.548C123.547 109.478 126.048 109.479 129.242 109.479Z" fill="black"/>
<path d="M165.772 94.5623C167.161 94.9092 167.994 95.6029 168.341 96.713C168.688 97.823 168.688 99.6962 168.202 102.263L167.299 107.328C166.883 109.895 166.258 111.699 165.563 112.809C164.869 113.919 163.758 114.682 162.23 115.029C160.702 115.376 158.271 115.584 154.938 115.584H145.84L149.59 94.146H158.688C162.091 94.146 164.383 94.2848 165.772 94.5623ZM159.799 102.194C159.938 101.569 159.869 101.223 159.66 100.945C159.452 100.737 159.035 100.598 158.41 100.598H156.813L155.354 108.993H156.952C157.577 108.993 157.993 108.854 158.271 108.646C158.549 108.438 158.757 108.022 158.896 107.397L159.799 102.194Z" fill="black"/>
<path d="M171.814 94.146H188.064L187.023 100.182H179.175L178.758 102.402H186.328L185.425 107.397H177.856L177.508 109.548H185.356L184.314 115.584H168.063L171.814 94.146Z" fill="black"/>
<path d="M190.287 94.146H198.62L195.912 109.34H202.093L200.982 115.584H186.398L190.287 94.146Z" fill="black"/>
<path d="M206.399 94.146H214.732L210.982 115.584H202.648L206.399 94.146Z" fill="black"/>
<path d="M228.344 94.146H236.747L229.802 115.584H215.705L216.33 94.146H224.733L223.274 108.993H224.594L228.344 94.146Z" fill="black"/>
<path d="M238.275 94.146H254.526L253.484 100.182H245.636L245.22 102.402H252.79L251.887 107.397H244.317L243.97 109.548H251.817L250.776 115.584H234.525L238.275 94.146Z" fill="black"/>
<path d="M273.207 107.466C273.971 108.23 274.179 109.409 273.902 110.935L273.068 115.514H264.457L265.221 111.282C265.36 110.45 265.082 110.103 264.387 110.103H262.304L261.332 115.514H252.928L256.679 94.0765H269.318C271.749 94.0765 273.485 94.5622 274.527 95.5335C275.568 96.5048 275.846 97.9617 275.499 100.043L275.36 100.876C275.082 102.402 274.457 103.581 273.416 104.483C272.374 105.316 270.985 105.801 269.249 105.871L269.179 106.218C271.193 106.287 272.513 106.703 273.207 107.466ZM263.346 104.344H265.36C265.776 104.344 266.054 104.275 266.262 104.067C266.471 103.859 266.61 103.581 266.679 103.096L267.026 101.153C267.096 100.737 267.096 100.459 266.887 100.321C266.749 100.182 266.471 100.112 266.054 100.112H264.11L263.346 104.344Z" fill="black"/>
<path d="M298 94.1459L288.902 110.103L287.93 115.514H279.11L280.082 110.103L276.61 94.0765H285.43L285.499 101.916H286.333L289.18 94.0765H298V94.1459Z" fill="black"/>
<path d="M165.424 0.693848H129.589L111.602 31.7058L129.589 62.7871H165.424L183.342 31.7058L165.424 0.693848Z" fill="#BFA454"/>
<path d="M165.841 63.4809H129.173L110.839 31.7751L129.173 0H165.841L184.175 31.7057L165.841 63.4809ZM129.937 62.0933H165.008L182.508 31.7751L165.008 1.38756H129.937L112.436 31.7057L129.937 62.0933Z" fill="#231F20"/>
<path d="M128.27 21.0215H144.521V27.0574H136.673V29.2775H144.243V34.2727H136.673V36.4234H144.521V42.4593H128.27V21.0215Z" fill="black"/>
<path d="M162.924 21.5071C164.313 21.854 165.355 22.5478 165.91 23.6578C166.466 24.7679 166.744 26.6411 166.744 29.2081V34.2727C166.744 36.8397 166.466 38.6435 165.98 39.7535C165.494 40.8636 164.522 41.6268 163.063 41.9736C161.605 42.3205 159.244 42.5287 155.91 42.5287H146.812V21.0215H155.91C159.105 21.0215 161.466 21.1602 162.924 21.5071ZM158.271 29.0693C158.271 28.4449 158.132 28.098 157.924 27.8205C157.716 27.6124 157.23 27.4736 156.605 27.4736H155.007V35.8684H156.605C157.23 35.8684 157.646 35.7296 157.855 35.5215C158.063 35.3134 158.202 34.8971 158.202 34.2727V29.0693H158.271Z" fill="black"/>
</g>
<defs>
<clipPath id="clip0">
<rect width="298" height="116" fill="white"/>
</clipPath>
</defs>
</svg>
