<svg width="24" height="24" viewBox="0 0 24 24" fill="none" xmlns="http://www.w3.org/2000/svg">
<g clip-path="url(#clip0)">
<path d="M6.92795 7.80653C6.92795 5.21945 9.03251 3.1149 11.6196 3.1149C14.2062 3.1149 16.3108 5.21945 16.3108 7.80653V10.0197H18.411V7.80653C18.411 4.06141 15.3643 1.01465 11.6196 1.01465C7.87447 1.01465 4.82771 4.06141 4.82771 7.80653V10.0197H6.92795V7.80653Z" fill="#2E2E2E"/>
<path d="M20.6216 11.3115H3.37842C2.90237 11.3115 2.51678 11.6971 2.51678 12.1732V22.1242C2.51678 22.6003 2.90237 22.9859 3.37842 22.9859H20.6216C21.0976 22.9859 21.4832 22.6003 21.4832 22.1242V12.1732C21.4832 11.6971 21.0976 11.3115 20.6216 11.3115V11.3115ZM12.6462 20.6918C12.6462 21.0485 12.3567 21.338 12 21.338C11.6433 21.338 11.3538 21.0485 11.3538 20.6918V20.6345C11.3538 20.2773 11.6433 19.9882 12 19.9882C12.3567 19.9882 12.6462 20.2773 12.6462 20.6345V20.6918ZM12.7345 17.586C12.6816 17.6032 12.6462 17.6493 12.6462 17.7002V18.2723C12.6462 18.6294 12.3567 18.9185 12 18.9185C11.6433 18.9185 11.3538 18.6294 11.3538 18.2723V17.7002C11.3538 17.0918 11.7445 16.5499 12.333 16.3573C12.7992 16.2048 13.1012 15.7546 13.0676 15.2626C13.031 14.7348 12.6053 14.3092 12.0771 14.2726C11.4468 14.2282 10.9298 14.7271 10.9298 15.3401C10.9298 15.6964 10.6416 15.9864 10.2836 15.9864C9.92689 15.9864 9.63738 15.6968 9.63738 15.3401C9.63738 14.002 10.7653 12.8866 12.1663 12.9831C13.3347 13.0637 14.2765 14.0054 14.357 15.1738C14.4315 16.2573 13.7646 17.2491 12.7345 17.586V17.586Z" fill="#2E2E2E"/>
</g>
<defs>
<clipPath id="clip0">
<rect width="21.9718" height="21.9718" fill="white" transform="translate(1.01408 1.01465)"/>
</clipPath>
</defs>
</svg>
