<svg width="42" height="21" viewBox="0 0 42 21" fill="none" xmlns="http://www.w3.org/2000/svg">
<path d="M36.1096 17.9839C36.1097 17.6329 36.0415 17.2853 35.9088 16.9609C35.7761 16.6366 35.5816 16.3419 35.3363 16.0937C35.0911 15.8454 34.7999 15.6485 34.4793 15.5141C34.1588 15.3797 33.8153 15.3105 33.4684 15.3105C33.1214 15.3105 32.7779 15.3797 32.4574 15.5141C32.1369 15.6485 31.8457 15.8454 31.6004 16.0937C31.3551 16.3419 31.1606 16.6366 31.0279 16.9609C30.8952 17.2853 30.827 17.6329 30.8271 17.9839C30.827 18.3349 30.8952 18.6826 31.0279 19.0069C31.1606 19.3313 31.3551 19.6259 31.6004 19.8742C31.8457 20.1224 32.1369 20.3194 32.4574 20.4538C32.7779 20.5881 33.1214 20.6573 33.4684 20.6573C33.8153 20.6573 34.1588 20.5881 34.4793 20.4538C34.7999 20.3194 35.0911 20.1224 35.3363 19.8742C35.5816 19.6259 35.7761 19.3313 35.9088 19.0069C36.0415 18.6826 36.1097 18.3349 36.1096 17.9839V17.9839Z" fill="#BFA454"/>
<path d="M11.018 17.9841C11.0189 17.6326 10.9513 17.2843 10.819 16.9593C10.6867 16.6342 10.4923 16.3387 10.247 16.0897C10.0016 15.8408 9.71012 15.6434 9.38921 15.5086C9.06829 15.3739 8.72425 15.3044 8.37679 15.3044C8.02934 15.3044 7.6853 15.3739 7.36438 15.5086C7.04346 15.6434 6.75198 15.8408 6.50663 16.0897C6.26127 16.3387 6.06688 16.6342 5.93457 16.9593C5.80227 17.2843 5.73465 17.6326 5.73561 17.9841C5.73465 18.3357 5.80227 18.6839 5.93457 19.009C6.06688 19.334 6.26127 19.6296 6.50663 19.8785C6.75198 20.1274 7.04346 20.3248 7.36438 20.4596C7.6853 20.5944 8.02934 20.6638 8.37679 20.6638C8.72425 20.6638 9.06829 20.5944 9.38921 20.4596C9.71012 20.3248 10.0016 20.1274 10.247 19.8785C10.4923 19.6296 10.6867 19.334 10.819 19.009C10.9513 18.6839 11.0189 18.3357 11.018 17.9841Z" fill="#BFA454"/>
<path d="M26.7528 2.08787C22.657 1.99042 18.56 2.21755 14.4994 2.76732C13.8283 2.8582 13.1917 3.1227 12.6511 3.53515C9.71405 5.77822 6.93137 8.22104 4.32235 10.8466C3.75653 11.4165 3.3741 12.146 3.22517 12.9396C3.00409 14.1127 2.80836 15.2904 2.63815 16.4721C2.61099 16.6618 2.6245 16.8552 2.67775 17.0392C2.731 17.2231 2.82275 17.3934 2.94676 17.5383C3.07078 17.6832 3.22415 17.7993 3.39648 17.879C3.56881 17.9586 3.75606 17.9999 3.94551 17.9998H5.07857C5.07883 17.115 5.42641 16.2666 6.04486 15.641C6.66331 15.0155 7.50199 14.6641 8.37648 14.6641C9.25097 14.6641 10.0897 15.0155 10.7081 15.641C11.3266 16.2666 11.6741 17.115 11.6744 17.9998H30.1699C30.1628 17.1149 30.5034 16.2633 31.1168 15.6325C31.7302 15.0016 32.5661 14.6432 33.4408 14.636C34.3154 14.6287 35.157 14.9733 35.7806 15.5939C36.4041 16.2144 36.7585 17.0602 36.7657 17.9451C37.2215 17.8484 37.6439 17.6314 37.9901 17.3162C38.3363 17.001 38.594 16.5988 38.737 16.1503C38.8521 15.7925 38.9615 15.4328 39.0651 15.0714C39.498 13.5527 39.4775 11.9383 39.0062 10.4314C38.3426 8.30913 37.5525 6.22953 36.6401 4.20403C36.4542 3.79073 36.1666 3.43253 35.8049 3.16371C35.4432 2.8949 35.0194 2.7244 34.574 2.66852C31.9781 2.34312 29.3678 2.14936 26.7528 2.08771L26.7528 2.08787ZM16.2681 3.88529C16.3205 3.8827 16.3726 3.89285 16.4203 3.91485C16.468 3.93684 16.5097 3.96998 16.5421 4.01165C16.5745 4.05332 16.5965 4.1022 16.6064 4.15425C16.6163 4.2063 16.6137 4.25995 16.5988 4.31079C16.2031 5.68581 15.9842 7.10685 15.9477 8.53851C15.9454 8.62572 15.9261 8.71158 15.891 8.79124C15.8558 8.8709 15.8055 8.94278 15.7429 9.00276C15.6803 9.06274 15.6066 9.10961 15.5261 9.14077C15.4455 9.17192 15.3597 9.18668 15.2735 9.18427C13.0459 9.12021 10.8166 9.1957 8.59822 9.41019C8.5292 9.41729 8.45973 9.40203 8.3998 9.36669C8.33986 9.33134 8.29254 9.27763 8.26463 9.21337C8.23672 9.14911 8.22966 9.07762 8.24446 9.00904C8.25926 8.94047 8.29516 8.87847 8.34701 8.83183C9.98646 7.34959 11.6858 5.93646 13.4406 4.59629C13.8011 4.32058 14.2258 4.14367 14.6737 4.08272C15.1968 4.01237 15.7206 3.94752 16.2451 3.88804C16.2527 3.88688 16.2605 3.88605 16.2682 3.88544L16.2681 3.88529ZM19.6622 10.0322C19.6707 10.032 19.6793 10.032 19.6878 10.0322H35.4378C35.6113 10.0331 35.7773 10.1034 35.8996 10.2278C36.022 10.3522 36.0907 10.5207 36.0907 10.6962C36.0907 10.8717 36.022 11.04 35.8996 11.1644C35.7773 11.2888 35.6113 11.3591 35.4378 11.36H19.6878C19.5143 11.3625 19.3469 11.2955 19.2222 11.1735C19.0974 11.0514 19.0255 10.8846 19.0221 10.709C19.0187 10.5335 19.0842 10.3638 19.2041 10.237C19.324 10.1102 19.4887 10.0365 19.6622 10.0322V10.0322Z" fill="#BFA454"/>
</svg>
