<svg width="25" height="25" viewBox="0 0 25 25" fill="none" xmlns="http://www.w3.org/2000/svg">
<g clip-path="url(#clip0)">
<path fill-rule="evenodd" clip-rule="evenodd" d="M-7.6932e-07 17.6L-3.22918e-07 7.3875C-1.30041e-07 2.975 2.83875 -9.68697e-07 7.075 -7.83525e-07L17.9125 -3.09804e-07C22.15 -1.24577e-07 25 2.975 25 7.3875L25 17.6C25 22.025 22.15 25 17.9125 25L7.075 25C2.83875 25 -9.62743e-07 22.025 -7.6932e-07 17.6ZM13.4375 15.3374L13.4375 7.3999C13.4375 6.8749 13.0125 6.4624 12.5 6.4624C11.975 6.4624 11.5625 6.8749 11.5625 7.3999L11.5625 15.3374L8.475 12.2374C8.3 12.0624 8.05 11.9624 7.8125 11.9624C7.57625 11.9624 7.3375 12.0624 7.15 12.2374C6.7875 12.5999 6.7875 13.1999 7.15 13.5624L11.8375 18.2749C12.1875 18.6249 12.8125 18.6249 13.1625 18.2749L17.85 13.5624C18.2125 13.1999 18.2125 12.5999 17.85 12.2374C17.475 11.8749 16.8875 11.8749 16.5125 12.2374L13.4375 15.3374Z" fill="white"/>
</g>
<defs>
<clipPath id="clip0">
<rect width="25" height="25" fill="white"/>
</clipPath>
</defs>
</svg>
