<svg width="20" height="20" viewBox="0 0 20 20" fill="none" xmlns="http://www.w3.org/2000/svg">
<path d="M9.89049 6.77199V3.59818C9.89049 3.26072 10.1597 2.97949 10.5001 2.97949C10.8049 2.97949 11.0631 3.2158 11.104 3.51512L11.1097 3.59818V6.77199L14.8937 6.77223C16.7779 6.77223 18.3259 8.31515 18.4128 10.2394L18.4167 10.4101V14.3996C18.4167 16.3373 16.9225 17.9279 15.0664 18.0172L14.9017 18.0212H6.09833C4.21416 18.0212 2.67365 16.4859 2.58716 14.5546L2.58333 14.3832L2.58333 10.402C2.58333 8.46424 4.07001 6.86595 5.92574 6.7762L6.09041 6.77223H9.89041V11.8408L8.62375 10.5328C8.38625 10.2875 7.99833 10.2875 7.76083 10.5328C7.64208 10.6554 7.58666 10.8189 7.58666 10.9824C7.58666 11.1067 7.62213 11.2362 7.69712 11.3458L7.76083 11.4239L10.0646 13.811C10.1754 13.9336 10.3337 13.999 10.5 13.999C10.6319 13.999 10.7639 13.9536 10.8683 13.8675L10.9275 13.811L13.2312 11.4239C13.4687 11.1786 13.4687 10.778 13.2312 10.5328C13.0153 10.3098 12.6751 10.2895 12.4366 10.472L12.3683 10.5328L11.1096 11.8408V6.77223L9.89049 6.77199Z" fill="#2E2E2E"/>
</svg>
