<svg width="28" height="28" viewBox="0 0 28 28" fill="none" xmlns="http://www.w3.org/2000/svg">
<path fill-rule="evenodd" clip-rule="evenodd" d="M25.6668 14C25.6668 20.44 20.4284 25.6667 14.0001 25.6667L13.6737 25.6622C7.38443 25.4891 2.33344 20.3309 2.33344 14C2.33344 7.57167 7.5601 2.33334 14.0001 2.33334C20.4284 2.33334 25.6668 7.57167 25.6668 14ZM11.6901 9.33334C11.3518 9.68334 11.3518 10.2317 11.7018 10.57L15.1434 14L11.7018 17.43C11.3518 17.7683 11.3518 18.3283 11.6901 18.6667C12.0401 19.0167 12.5884 19.0167 12.9268 18.6667L16.9984 14.6183C17.1618 14.455 17.2551 14.2333 17.2551 14C17.2551 13.7667 17.1618 13.545 16.9984 13.3817L12.9268 9.33334C12.7634 9.15834 12.5418 9.07667 12.3201 9.07667C12.0868 9.07667 11.8651 9.15834 11.6901 9.33334Z" fill="#BFA454"/>
</svg>
