<svg width="25" height="25" viewBox="0 0 25 25" fill="none" xmlns="http://www.w3.org/2000/svg">
<g clip-path="url(#clip0)">
<g clip-path="url(#clip1)">
<path d="M7.93173 7.85852H7.65719L7.14417 10.4243H8.44476L7.93173 7.85852Z" fill="#2E2E2E"/>
<path d="M18.3087 12.9901C18.5857 13.7341 18.9541 14.3364 19.3618 14.8489C19.7695 14.3364 20.1807 13.7341 20.4576 12.9901H18.3087Z" fill="#2E2E2E"/>
<path d="M21.9704 5.89148H14.0043L15.6653 19.2199C15.6947 19.765 15.5457 20.2782 15.1899 20.68L12.377 23.8948H21.9704C23.0315 23.8948 23.8947 23.0316 23.8947 21.9704V7.85858C23.8947 6.79746 23.0315 5.89148 21.9704 5.89148ZM21.9704 12.9902H21.7991C21.4341 14.1611 20.8553 15.0774 20.2538 15.7998C20.725 16.2306 21.2289 16.584 21.7298 16.9798C22.0061 17.2009 22.0512 17.6043 21.8294 17.8812C21.6087 18.1577 21.2037 18.2025 20.928 17.9808C20.3837 17.5512 19.8728 17.1915 19.3618 16.7227C18.8509 17.1915 18.3827 17.5512 17.8384 17.9808C17.5627 18.2025 17.1577 18.1577 16.937 17.8812C16.7152 17.6043 16.7603 17.2009 17.0366 16.9798C17.5375 16.584 17.9987 16.2306 18.4699 15.7998C17.8684 15.0775 17.3323 14.1612 16.9673 12.9902H16.796C16.4415 12.9902 16.1546 12.7033 16.1546 12.3487C16.1546 11.9942 16.4415 11.7073 16.796 11.7073H18.7204V11.0658C18.7204 10.7113 19.0073 10.4244 19.3618 10.4244C19.7164 10.4244 20.0033 10.7113 20.0033 11.0658V11.7073H21.9704C22.3249 11.7073 22.6118 11.9942 22.6118 12.3487C22.6118 12.7033 22.3249 12.9902 21.9704 12.9902Z" fill="#2E2E2E"/>
<path d="M12.4412 3.68568C12.3216 2.72475 11.5003 2 10.5319 2H3.92434C2.86322 2 2 2.86322 2 3.92434V18.1217C2 19.1828 2.86322 20.0461 3.92434 20.0461C7.75891 20.0461 10.5174 20.0461 14.04 20.0461C14.2271 19.8322 14.384 19.6982 14.3906 19.419C14.3922 19.349 12.4499 3.75513 12.4412 3.68568ZM9.86603 14.2605C9.52589 14.3305 9.18134 14.1097 9.11121 13.7575L8.70124 11.7072H6.88761L6.47764 13.7575C6.40875 14.1045 6.07422 14.3325 5.72283 14.2605C5.37581 14.191 5.15028 13.8533 5.21981 13.5057L6.50266 7.09121C6.56279 6.79178 6.82591 6.57566 7.13158 6.57566H8.45724C8.76291 6.57566 9.02603 6.79178 9.08615 7.09121L10.369 13.5057C10.4386 13.8533 10.2131 14.191 9.86603 14.2605Z" fill="#2E2E2E"/>
<path d="M9.49469 21.329L9.60476 22.2091C9.67814 22.7985 10.0698 23.3995 10.714 23.6996C11.9296 22.3614 11.1941 23.171 12.8675 21.329H9.49469Z" fill="#2E2E2E"/>
</g>
</g>
<defs>
<clipPath id="clip0">
<rect width="25" height="25" fill="white"/>
</clipPath>
<clipPath id="clip1">
<rect width="21.8947" height="21.8947" fill="white" transform="translate(2 2)"/>
</clipPath>
</defs>
</svg>
