<svg width="30" height="28" viewBox="0 0 30 28" fill="none" xmlns="http://www.w3.org/2000/svg">
<path fill-rule="evenodd" clip-rule="evenodd" d="M22.7146 5.10695C22.7734 5.20982 22.8764 5.28329 23.0088 5.28329C26.5396 5.28329 29.4231 8.16355 29.4231 11.6904V20.4193C29.4231 23.9462 26.5396 26.8265 23.0088 26.8265H6.41423C2.86875 26.8265 0 23.9462 0 20.4193V11.6904C0 8.16355 2.86875 5.28329 6.41423 5.28329C6.53192 5.28329 6.64961 5.22451 6.69375 5.10695L6.78201 4.93061C6.83273 4.82386 6.88479 4.71421 6.93763 4.6029C7.31399 3.81017 7.73036 2.93316 7.98836 2.41773C8.66509 1.09516 9.81259 0.360398 11.2396 0.345703H18.1687C19.5958 0.360398 20.758 1.09516 21.4347 2.41773C21.6664 2.88064 22.0194 3.62631 22.3597 4.34499C22.4299 4.49327 22.4996 4.6404 22.5675 4.78365L22.7146 5.10695ZM21.6406 10.7507C21.6406 11.4855 22.2291 12.0733 22.9647 12.0733C23.7002 12.0733 24.3034 11.4855 24.3034 10.7507C24.3034 10.016 23.7002 9.41346 22.9647 9.41346C22.2291 9.41346 21.6406 10.016 21.6406 10.7507ZM12.1666 13.0285C12.858 12.3378 13.7554 11.9704 14.7116 11.9704C15.6679 11.9704 16.5653 12.3378 17.242 13.0138C17.9188 13.6898 18.2866 14.5862 18.2866 15.5414C18.2718 17.5105 16.683 19.1123 14.7116 19.1123C13.7554 19.1123 12.858 18.7449 12.1813 18.0689C11.5045 17.393 11.1367 16.4965 11.1367 15.5414V15.5267C11.122 14.6009 11.4898 13.7045 12.1666 13.0285ZM18.7866 19.6275C17.7421 20.6709 16.3003 21.3175 14.7115 21.3175C13.1668 21.3175 11.7251 20.715 10.6217 19.6275C9.53304 18.5254 8.92986 17.0853 8.92986 15.5423C8.91515 14.014 9.51833 12.5739 10.607 11.4717C11.7103 10.3696 13.1668 9.76707 14.7115 9.76707C16.2562 9.76707 17.7126 10.3696 18.8013 11.457C19.89 12.5592 20.4931 14.014 20.4931 15.5423C20.4784 17.1441 19.8311 18.5842 18.7866 19.6275Z" fill="#BFA454"/>
</svg>
