<svg width="33" height="25" viewBox="0 0 33 25" fill="none" xmlns="http://www.w3.org/2000/svg">
<g clip-path="url(#clip0)">
<rect width="33" height="25" fill="white"/>
<g clip-path="url(#clip1)">
<path d="M4.5 6.49998H9.00001V0.5H30C31.6575 0.5 33 1.84248 33 3.50003V20.0001H30C30 22.4826 27.9825 24.5001 25.5 24.5001C23.0174 24.5001 21 22.4826 21 20.0001H12C12 22.4826 9.98248 24.5001 7.49996 24.5001C5.01743 24.5001 2.99995 22.4826 2.99995 20.0001H-7.23998e-05V12.5L4.5 6.49998ZM25.5 22.25C26.745 22.25 27.75 21.245 27.75 20C27.75 18.755 26.745 17.75 25.5 17.75C24.2549 17.75 23.25 18.755 23.25 20C23.25 21.245 24.255 22.25 25.5 22.25ZM7.49996 22.25C8.74498 22.25 9.74996 21.245 9.74996 20C9.74996 18.755 8.74498 17.75 7.49996 17.75C6.25493 17.75 5.24996 18.755 5.24996 20C5.24996 21.245 6.255 22.25 7.49996 22.25ZM9.00001 12.5V8.75005H5.25003L2.30252 12.5H9.00001Z" fill="#BFA454"/>
</g>
</g>
<defs>
<clipPath id="clip0">
<rect width="33" height="25" fill="white"/>
</clipPath>
<clipPath id="clip1">
<rect width="33" height="33" fill="white" transform="matrix(-1 0 0 1 33 -4)"/>
</clipPath>
</defs>
</svg>
