<svg width="25" height="25" viewBox="0 0 25 25" fill="none" xmlns="http://www.w3.org/2000/svg">
<g clip-path="url(#clip0)">
<path d="M12 22.8333C6.01694 22.8333 1.16669 17.983 1.16669 12C1.16669 6.01687 6.01694 1.16663 12 1.16663C17.9831 1.16663 22.8334 6.01687 22.8334 12C22.8268 17.9803 17.9804 22.8267 12 22.8333ZM10.9167 17.4166V19.5833H13.0834V17.4166H10.9167ZM12 6.58329C13.1966 6.58329 14.1667 7.55334 14.1667 8.74996C14.1705 9.32491 13.9397 9.87656 13.5275 10.2775L12.1842 11.6425C11.3732 12.4568 10.9176 13.559 10.9167 14.7083V15.25H13.0834C12.9992 14.0854 13.4689 12.9493 14.3509 12.1841L15.3259 11.1875C15.9738 10.5421 16.3366 9.66441 16.3334 8.74996C16.3334 6.35672 14.3933 4.41663 12 4.41663C9.60679 4.41663 7.66669 6.35672 7.66669 8.74996H9.83335C9.83335 7.55334 10.8034 6.58329 12 6.58329Z" fill="#2E2E2E"/>
</g>
<defs>
<clipPath id="clip0">
<rect width="25" height="25" fill="white"/>
</clipPath>
</defs>
</svg>
