<svg viewBox="0 0 100 94" fill="none" xmlns="http://www.w3.org/2000/svg">
<g clip-path="url(#clip0)">
<path d="M62.0428 45.12L94.3214 46.5012C94.0392 20.7695 73.0504 0 47.1864 0C27.6858 0 10.9307 11.8171 3.77188 28.6476L62.0428 45.12Z" fill="#F9F9F9"/>
<path d="M2.97644 63.3829C9.6477 81.2621 26.916 94 47.1864 94C67.4567 94 84.6994 81.2621 91.3707 63.3829H2.97644Z" fill="#F9F9F9"/>
<path d="M38.8216 63.3829H2.97644C8.44174 78.0136 21.0145 89.2169 36.538 92.7723C26.018 86.1219 26.993 68.4985 38.8216 63.3829Z" fill="#F9F9F9"/>
<path d="M93.5772 57.5254H98.555V52.2563H91.114C90.1646 52.2563 89.2666 51.8726 88.5995 51.2076L87.4448 50.0566C86.1106 48.7265 86.0592 46.6291 87.2909 45.2223L88.5225 43.8155C84.5454 42.4598 79.234 41.4111 72.3832 41.4111H63.7618C61.0933 41.4111 58.5018 40.6694 56.2439 39.237C49.7265 35.1189 35.0754 26.5758 25.8383 26.5758C24.1448 26.5758 22.4 26.6269 20.6552 26.6781C14.9847 26.9083 9.33976 27.5222 3.77183 28.5453C3.28431 29.6707 2.84811 30.7962 2.46323 31.9472L0.153952 43.1249C0.0513174 44.3782 0 45.6571 0 46.9616C0 52.0005 0.79542 56.8348 2.25796 61.3877H62.325C62.325 61.2598 62.325 61.1064 62.325 60.9785C62.325 54.8653 67.3027 49.9031 73.4352 49.9031C79.5676 49.9031 84.5454 54.8653 84.5454 60.9785C84.5454 62.3341 84.2888 63.6642 83.827 64.8664H84.725C86.906 64.8664 89.0613 64.6362 91.191 64.1758L94.4753 63.4596H93.5516C92.2173 63.4596 91.114 62.3597 91.114 61.0296V59.9298C91.1397 58.6253 92.243 57.5254 93.5772 57.5254Z" fill="#BFA454"/>
<path d="M31.7911 60.8762C27.6857 60.0065 26.3002 55.1211 26.1719 54.6351C26.1719 54.6095 26.1462 54.584 26.1462 54.5584L24.5041 44.148L22.3487 30.1567C22.3231 29.901 22.1691 29.6963 21.9382 29.5684C20.6039 28.7755 20.8862 27.7012 21.2198 27.1129C21.2967 26.985 21.3224 26.8316 21.3224 26.6781C21.1171 26.6781 20.8862 26.7037 20.6809 26.7037C15.0103 26.9339 9.36543 27.5478 3.79749 28.5709C3.30998 29.6963 2.89944 30.8218 2.4889 31.9728L0.179617 43.1505C0.0769827 44.4038 0.0256653 45.6827 0.0256653 46.9872C0.0256653 52.0261 0.821085 56.8604 2.28363 61.4133H32.4069C32.33 61.1576 32.0734 60.9274 31.7911 60.8762Z" fill="#AF9145"/>
<path d="M73.4609 47.243C65.8402 47.243 59.6565 53.4073 59.6565 61.0041C59.6565 61.132 59.6565 61.2854 59.6565 61.4133H62.3507C62.3507 61.2854 62.3507 61.132 62.3507 61.0041C62.3507 54.8909 67.3284 49.9287 73.4609 49.9287C79.5933 49.9287 84.5711 54.8909 84.5711 61.0041C84.5711 62.3597 84.3145 63.6898 83.8526 64.892H84.7507C85.4178 64.892 86.0593 64.8664 86.7264 64.8152C87.0856 63.6131 87.2653 62.3341 87.2653 61.0041C87.2653 53.4073 81.0815 47.243 73.4609 47.243Z" fill="#6B6B6B"/>
<path d="M62.3507 61.0041C62.3507 56.6813 64.8652 52.9213 68.5088 51.1053C68.4574 50.8751 68.3035 50.6705 68.0982 50.5681C67.3284 50.1845 67.3285 49.5194 67.4311 49.059C67.4567 48.9311 67.4567 48.7777 67.4311 48.6498C62.8382 50.9007 59.6822 55.5815 59.6822 61.0296C59.6822 61.1575 59.6822 61.311 59.6822 61.4389H62.3763C62.3507 61.2854 62.3507 61.132 62.3507 61.0041Z" fill="#6B6B6B"/>
<path d="M55.2689 42.2553C55.0379 42.1274 54.8327 41.9995 54.6274 41.8716C42.5421 34.2493 31.8168 29.6964 25.8896 29.6964C24.3245 29.6964 22.631 29.7219 20.8349 29.7987C14.7024 30.0289 8.59566 30.7706 2.51455 31.9728C1.30859 35.5282 0.513166 39.2882 0.205261 43.1761L49.1621 45.12C51.3431 45.1968 53.4984 44.6085 55.3202 43.3807C55.7051 43.0994 55.6794 42.4855 55.2689 42.2553Z" fill="#363540"/>
<path d="M24.4784 44.1225L22.3487 30.1567C22.3231 30.0033 22.2461 29.8498 22.1435 29.7475C21.7073 29.7731 21.2454 29.7731 20.7836 29.7987C14.6511 30.0289 8.54436 30.7706 2.46324 31.9728C1.25729 35.5282 0.461866 39.2882 0.153961 43.1761L24.4784 44.1225Z" fill="#21212B"/>
<path d="M16.9604 30.0032L19.0901 43.9178L24.5041 44.1224L22.2974 29.7219C21.8099 29.7475 21.3224 29.7475 20.8092 29.773C19.5263 29.8498 18.2434 29.9265 16.9604 30.0032Z" fill="#5F5E6A"/>
<path d="M13.8557 43.7132L19.0901 43.9178L16.9605 30.0033C15.2413 30.1312 13.5478 30.2846 11.8544 30.4893L13.8557 43.7132Z" fill="#4B4A55"/>
<path d="M31.5345 50.5938H28.943C28.0963 50.5938 27.4035 49.9031 27.4035 49.0591C27.4035 48.215 28.0963 47.5244 28.943 47.5244H31.5345C32.3813 47.5244 33.0741 48.215 33.0741 49.0591C33.0997 49.9031 32.4069 50.5938 31.5345 50.5938Z" fill="#6B6B6B"/>
<path d="M97.067 48.2662C95.5274 47.0384 92.7306 45.2224 88.3943 43.7644L87.0857 45.2479C85.8284 46.6803 85.9054 48.8289 87.2396 50.1845L88.3943 51.3356C89.0614 52.0006 89.9851 52.3843 90.9602 52.3843H98.5552V51.31C98.5552 50.1334 98.0163 49.0079 97.067 48.2662Z" fill="#757575"/>
<path d="M98.5552 51.3355C98.5552 50.1334 98.0163 49.0079 97.067 48.2662C96.2715 47.6523 95.1682 46.8594 93.68 46.0664C92.1148 46.7059 91.0115 48.2406 91.0115 50.0311C91.0115 50.9007 91.2681 51.7192 91.7299 52.4098H98.5552V51.3355Z" fill="#4E4E4E"/>
<path d="M93.5004 57.4743C92.1405 57.4743 91.0115 58.5741 91.0115 59.9554V61.0808C91.0115 62.4365 92.1148 63.5619 93.5004 63.5619H94.2445L95.4505 63.3061C97.2466 62.9224 98.5552 61.311 98.5552 59.4694V57.4743H93.5004Z" fill="#6B6B6B"/>
<path d="M94.7833 61.0808V59.9554C94.7833 58.5997 95.8867 57.4743 97.2722 57.4743H93.5004C92.1405 57.4743 91.0115 58.5741 91.0115 59.9554V61.0808C91.0115 62.4365 92.1148 63.5619 93.5004 63.5619H94.2445L95.4505 63.3061C95.6044 63.2805 95.7584 63.2294 95.9123 63.1782C95.2452 62.7178 94.7833 61.9505 94.7833 61.0808Z" fill="#6B6B6B"/>
<path d="M58.3478 61.4134V47.4221C58.3478 46.7314 58.1169 46.0153 57.7064 45.4781L55.6537 42.6389C55.1662 41.9483 54.1911 41.7948 53.4983 42.2808C52.8055 42.7924 52.6516 43.7388 53.1391 44.4294L55.1918 47.2686C55.2175 47.2942 55.2431 47.3453 55.2431 47.3965V61.3878H58.3478V61.4134Z" fill="#6B6B6B"/>
<path d="M55.2689 42.2552C55.038 42.1274 54.8327 41.9995 54.6274 41.8716C52.0359 40.2346 49.5214 38.751 47.0838 37.421C47.0838 37.421 48.6746 42.5878 44.364 44.941L49.1621 45.12C51.3431 45.1967 53.4985 44.6084 55.3202 43.3807C55.7051 43.0993 55.6794 42.4855 55.2689 42.2552Z" fill="#21212B"/>
<path d="M47.6739 41.2066H44.1843C43.235 41.2066 42.4395 41.9739 42.4395 42.9459V48.5731C42.4395 49.5195 43.2093 50.3124 44.1843 50.3124H47.6739C49.8293 50.3124 51.5997 48.5475 51.5997 46.4245V45.1456C51.5741 42.9715 49.8293 41.2066 47.6739 41.2066Z" fill="#EEEFEB"/>
<path d="M45.416 46.3733V45.0944C45.416 43.2272 46.7502 41.6669 48.495 41.2833C48.2384 41.2321 47.9562 41.1809 47.6739 41.1809H44.1843C43.235 41.1809 42.4395 41.9483 42.4395 42.9203V48.5475C42.4395 49.4939 43.2093 50.2868 44.1843 50.2868H47.6739C47.9562 50.2868 48.2384 50.2612 48.495 50.1845C46.7502 49.8008 45.416 48.2405 45.416 46.3733Z" fill="#D6D6D0"/>
<path d="M2.15533 61.0041C2.71983 62.7946 3.38695 64.5595 4.15671 66.2476H63.6849C62.8382 64.6873 62.3507 62.8969 62.3507 61.0041H2.15533Z" fill="#4B4A55"/>
<path d="M32.3813 62.0528C32.5609 61.6691 32.4326 61.2343 32.099 61.0041H2.15533C2.71983 62.7946 3.38695 64.5595 4.15671 66.2476H34.28C31.5859 64.9176 31.8424 63.1527 32.3813 62.0528Z" fill="#363540"/>
<path d="M73.461 72.3864C67.1746 72.3864 62.0428 67.2708 62.0428 61.0041C62.0428 54.7374 67.1746 49.6218 73.461 49.6218C79.7473 49.6218 84.8791 54.7374 84.8791 61.0041C84.8791 67.2708 79.7473 72.3864 73.461 72.3864Z" fill="#21212B"/>
<path d="M78.3361 67.7567C78.3618 67.3986 78.1052 67.0661 77.7459 66.9893C76.7966 66.7591 76.6426 66.0174 76.6683 65.5058C76.6683 65.1733 76.463 64.8664 76.1294 64.764C71.1517 63.2294 71.2543 58.5741 71.4339 56.9627C71.4596 56.6557 71.3056 56.3488 71.0234 56.1953C70.2536 55.7861 70.151 55.0955 70.2279 54.5839C70.2793 54.2258 70.074 53.8933 69.7404 53.7654C68.3292 53.2283 68.3035 52.154 68.4831 51.4889C68.5345 51.2587 68.4831 51.0541 68.3548 50.8751C64.6087 52.7423 62.0172 56.6046 62.0172 61.0552C62.0172 67.3219 67.1489 72.4375 73.4353 72.4375C76.1038 72.4375 78.567 71.5167 80.5171 69.982C78.567 69.6751 78.2848 68.524 78.3361 67.7567Z" fill="black"/>
<path d="M79.9012 61.0041C79.9012 64.5594 77.0275 67.4242 73.4609 67.4242C69.8943 67.4242 67.0206 64.5594 67.0206 61.0041C67.0206 57.4487 69.8943 54.5839 73.4609 54.5839C77.0275 54.5839 79.9012 57.4487 79.9012 61.0041Z" fill="#D6D6D0"/>
<path d="M76.6425 65.4802C76.6425 65.1477 76.4373 64.8408 76.1037 64.7385C71.1259 63.1782 71.2286 58.5486 71.4082 56.9371C71.4338 56.6302 71.2799 56.3233 70.9976 56.1698C70.6127 55.9652 70.4075 55.7094 70.2792 55.428C68.3035 56.5279 66.9692 58.6253 66.9692 61.0296C66.9692 64.585 69.8686 67.4498 73.4095 67.4498C74.6668 67.4498 75.8471 67.0917 76.8478 66.4522C76.6939 66.1197 76.6425 65.7616 76.6425 65.4802Z" fill="#C6C6C1"/>
<path d="M73.4608 68.7799C69.1758 68.7799 65.6606 65.3013 65.6606 61.0041C65.6606 56.707 69.1502 53.2283 73.4608 53.2283C77.7715 53.2283 81.2611 56.707 81.2611 61.0041C81.2611 65.3013 77.7458 68.7799 73.4608 68.7799ZM73.4608 55.9141C70.6384 55.9141 68.3547 58.1905 68.3547 61.0041C68.3547 63.8177 70.6384 66.0942 73.4608 66.0942C76.2833 66.0942 78.5669 63.8177 78.5669 61.0041C78.5669 58.2161 76.2576 55.9141 73.4608 55.9141Z" fill="#EEEFEB"/>
<path d="M77.7459 66.9638C76.7965 66.7336 76.6425 65.9918 76.6682 65.4803C76.6682 65.3268 76.6425 65.1733 76.5656 65.071C75.7188 65.7105 74.6412 66.1197 73.4865 66.1197C70.6641 66.1197 68.3804 63.8433 68.3804 61.0297C68.3804 58.9834 69.5864 57.2185 71.3312 56.4256C71.2542 56.3233 71.1772 56.2209 71.0489 56.1698C70.2792 55.7605 70.1766 55.0699 70.2535 54.5584C70.2792 54.3537 70.2279 54.1747 70.1252 54.0212C67.5081 55.2745 65.6863 57.9347 65.6863 61.0297C65.6863 65.3268 69.1759 68.8054 73.4865 68.8054C75.2313 68.8054 76.8735 68.2171 78.1564 67.2452C78.0281 67.0917 77.8998 67.015 77.7459 66.9638Z" fill="#D6D6D0"/>
</g>
<defs>
<clipPath id="clip0">
<rect width="100" height="94" fill="white"/>
</clipPath>
</defs>
</svg>
