<svg width="28" height="28" viewBox="0 0 28 28" fill="none" xmlns="http://www.w3.org/2000/svg">
<path fill-rule="evenodd" clip-rule="evenodd" d="M4.0835 14.5157C4.0835 9.02829 8.46891 4.08337 14.521 4.08337C20.4377 4.08337 24.9168 8.9344 24.9168 14.4844C24.9168 20.9211 19.6668 24.9167 14.5002 24.9167C12.7918 24.9167 10.896 24.4577 9.37516 23.5605C8.84391 23.2371 8.396 22.9972 7.82308 23.1849L5.71891 23.8109C5.18766 23.9778 4.7085 23.5605 4.86475 22.9972L5.56266 20.6603C5.67725 20.3369 5.65641 19.9927 5.48975 19.7214C4.59391 18.0731 4.0835 16.2683 4.0835 14.5157ZM13.1464 14.5157C13.1464 15.2564 13.7401 15.8511 14.4797 15.8615C15.2193 15.8615 15.813 15.2564 15.813 14.5262C15.813 13.7855 15.2193 13.1908 14.4797 13.1908C13.7505 13.1804 13.1464 13.7855 13.1464 14.5157ZM17.9479 14.5262C17.9479 15.2565 18.5417 15.8615 19.2813 15.8615C20.0208 15.8615 20.6146 15.2565 20.6146 14.5262C20.6146 13.7855 20.0208 13.1909 19.2813 13.1909C18.5417 13.1909 17.9479 13.7855 17.9479 14.5262ZM9.67754 15.8615C8.94837 15.8615 8.34421 15.2564 8.34421 14.5262C8.34421 13.7855 8.93796 13.1908 9.67754 13.1908C10.4171 13.1908 11.0109 13.7855 11.0109 14.5262C11.0109 15.2564 10.4171 15.8511 9.67754 15.8615Z" fill="#BFA454"/>
</svg>
