<svg width="25" height="25" viewBox="0 0 25 25" fill="none" xmlns="http://www.w3.org/2000/svg">
<g clip-path="url(#clip0)">
<path d="M11.6251 7.14836V2.59266C11.6251 2.10826 12.0115 1.70459 12.5001 1.70459C12.9376 1.70459 13.3083 2.04378 13.367 2.47343L13.3751 2.59266V7.14836L18.8068 7.14871C21.5114 7.14871 23.7333 9.36343 23.8581 12.1255L23.8636 12.3706V18.0971C23.8636 20.8785 21.7189 23.1616 19.0546 23.2898L18.8182 23.2955H6.18181C3.47726 23.2955 1.266 21.0918 1.14185 18.3196L1.13635 18.0736L1.13635 12.3589C1.13635 9.57743 3.27034 7.28324 5.93407 7.15442L6.17044 7.14871H11.625V14.4242L9.80681 12.5466C9.4659 12.1946 8.90908 12.1946 8.56817 12.5466C8.39772 12.7226 8.31817 12.9573 8.31817 13.192C8.31817 13.3704 8.36908 13.5563 8.47672 13.7136L8.56817 13.8257L11.875 17.2522C12.0341 17.4282 12.2614 17.5221 12.5 17.5221C12.6894 17.5221 12.8788 17.4569 13.0287 17.3333L13.1136 17.2522L16.4204 13.8257C16.7614 13.4737 16.7614 12.8987 16.4204 12.5466C16.1105 12.2266 15.6222 12.1975 15.2798 12.4593L15.1818 12.5466L13.375 14.4242V7.14871L11.6251 7.14836Z" fill="#BDBDBD"/>
</g>
<defs>
<clipPath id="clip0">
<rect width="25" height="25" fill="white"/>
</clipPath>
</defs>
</svg>
