<svg width="38" height="29" viewBox="0 0 38 29" fill="none" xmlns="http://www.w3.org/2000/svg">
<g clip-path="url(#clip0)">
<path d="M25.5101 18.1053H16.7557L11.7203 8.12064L9.89216 11.6311C11.5359 12.7769 12.6139 14.6859 12.6139 16.8512C12.6139 20.3576 9.7904 23.1987 6.30619 23.2C2.82275 23.1987 -0.000250897 20.3576 -0.000250897 16.8512C-0.000250897 13.3443 2.82275 10.5032 6.30619 10.5021C6.97174 10.5021 7.61222 10.6074 8.2141 10.7996L11.5262 4.44184L13.8404 0H18.0651V1.88096H14.9708L14.0314 3.68369H22.0364L23.438 6.97544H35.2747L36.6763 9.48356L28.9475 9.35206C27.4328 10.3238 24.7328 12.4644 24.1744 15.5971H25.5104C26.0882 12.6917 28.6351 10.5032 31.6928 10.5021C35.1765 10.5034 38 13.3446 38 16.8512C38 19.3704 36.5393 21.5393 34.4266 22.5654C33.5992 22.9671 32.6733 23.1992 31.6925 23.1997C28.6348 23.1987 26.0882 21.0102 25.5101 18.1053ZM8.72061 13.8796L6.82318 17.5229L5.16789 16.6497L7.02645 13.0816C6.79352 13.0363 6.55318 13.0105 6.3067 13.01C4.20063 13.0144 2.49471 14.7294 2.49241 16.8509C2.49471 18.971 4.20063 20.6872 6.3067 20.6903C8.41405 20.6872 10.1189 18.971 10.123 16.8509C10.1205 15.6525 9.5746 14.584 8.72061 13.8796ZM28.091 18.1053C28.6092 19.6079 30.0232 20.688 31.6925 20.6906C33.7999 20.6875 35.5045 18.9712 35.5089 16.8512C35.5045 14.7294 33.7999 13.0144 31.6925 13.0103C30.0232 13.0139 28.6087 14.0935 28.091 15.5974H31.8482V18.1055H28.091V18.1053Z" fill="#BFA454"/>
<path d="M10.66 3.8714C10.4263 4.66687 9.70347 5.25156 8.83722 5.25156V1.41089C9.89089 1.41089 10.7449 2.27069 10.7449 3.33123C10.7451 3.51986 10.7098 3.69846 10.66 3.8714Z" fill="#BFA454"/>
</g>
<defs>
<clipPath id="clip0">
<rect width="38" height="29" fill="white" transform="matrix(-1 0 0 1 38 0)"/>
</clipPath>
</defs>
</svg>
