<svg width="18" height="18" viewBox="0 0 18 18" fill="none" xmlns="http://www.w3.org/2000/svg">
<path fill-rule="evenodd" clip-rule="evenodd" d="M8.99996 17.5716C4.26853 17.5716 0.428528 13.7401 0.428528 9.00014C0.428528 4.26871 4.26853 0.428711 8.99996 0.428711C13.74 0.428711 17.5714 4.26871 17.5714 9.00014C17.5714 13.7401 13.74 17.5716 8.99996 17.5716ZM11.7342 12.1801C11.8371 12.2401 11.9485 12.2744 12.0685 12.2744C12.2828 12.2744 12.4971 12.163 12.6171 11.9573C12.7971 11.6573 12.7028 11.263 12.3942 11.0744L9.34282 9.25727V5.29727C9.34282 4.93727 9.05139 4.65441 8.69996 4.65441C8.34853 4.65441 8.05711 4.93727 8.05711 5.29727V9.62584C8.05711 9.8487 8.17711 10.0544 8.37425 10.1744L11.7342 12.1801Z" fill="#200E32"/>
</svg>
