<svg width="50" height="19" viewBox="0 0 50 19" fill="none" xmlns="http://www.w3.org/2000/svg">
<g clip-path="url(#clip0)">
<g clip-path="url(#clip1)">
<path d="M11.5057 11.6613C9.71391 11.6613 8.26099 13.1137 8.26099 14.906C8.26099 15.0442 8.27228 15.1802 8.28966 15.3136C8.49083 16.9129 9.85208 18.1499 11.5053 18.1499C13.2033 18.1499 14.5954 16.8447 14.7366 15.1823C14.744 15.0915 14.7501 14.999 14.7501 14.9056C14.7505 13.1137 13.298 11.6613 11.5057 11.6613ZM9.88163 13.6834L10.5429 14.3451C10.4916 14.4333 10.4512 14.5284 10.4252 14.6301H9.49276C9.54055 14.2773 9.67568 13.9549 9.88163 13.6834ZM9.48842 15.1919H10.4282C10.4547 15.2918 10.4938 15.3866 10.546 15.4735L9.88293 16.136C9.67742 15.8667 9.53925 15.5443 9.48842 15.1919ZM11.2251 16.9216C10.8736 16.8725 10.5542 16.7348 10.284 16.531L10.9435 15.871C11.0304 15.9218 11.1256 15.9592 11.2251 15.9853V16.9216ZM11.2251 13.8267C11.123 13.8537 11.0274 13.8937 10.9383 13.9462L10.2774 13.2854C10.549 13.079 10.8714 12.9426 11.2251 12.8935V13.8267ZM11.7869 12.8926C12.1405 12.9417 12.4634 13.079 12.7345 13.2849L12.0741 13.9458C11.9854 13.8932 11.889 13.8532 11.7873 13.8263L11.7869 12.8926ZM11.7869 16.9207V15.9857C11.8868 15.9592 11.9811 15.9223 12.068 15.871L12.728 16.531C12.4577 16.7348 12.1379 16.8716 11.7869 16.9207ZM13.1303 16.1391L12.4651 15.473C12.5172 15.3857 12.5594 15.2923 12.5859 15.1923H13.5183C13.4688 15.5434 13.3362 15.8684 13.1303 16.1391ZM12.5872 14.6301C12.5607 14.5284 12.5207 14.4333 12.4694 14.3451L13.1316 13.6834C13.3362 13.9549 13.4714 14.2773 13.52 14.6305H12.5872V14.6301Z" fill="#BFA454"/>
<path d="M38.4479 11.6613C36.6561 11.6613 35.2031 13.1137 35.2031 14.906C35.2031 15.0442 35.2144 15.1802 35.2318 15.3136C35.433 16.9129 36.7942 18.1499 38.447 18.1499C40.145 18.1499 41.5371 16.8447 41.6787 15.1823C41.6861 15.0915 41.6922 14.999 41.6922 14.9056C41.6931 13.1137 40.2401 11.6613 38.4479 11.6613ZM36.8238 13.6834L37.4846 14.3451C37.4334 14.4333 37.3929 14.5284 37.3669 14.6301H36.4345C36.4827 14.2773 36.6178 13.9549 36.8238 13.6834ZM36.431 15.1919H37.3708C37.3973 15.2918 37.4364 15.3866 37.4885 15.4735L36.8259 16.136C36.6196 15.8667 36.481 15.5443 36.431 15.1919ZM38.1672 16.9216C37.8157 16.8725 37.4964 16.7348 37.2261 16.531L37.8857 15.871C37.9726 15.9218 38.0677 15.9592 38.1672 15.9853V16.9216ZM38.1672 13.8267C38.0651 13.8537 37.9695 13.8937 37.8804 13.9462L37.2196 13.2854C37.4911 13.079 37.8131 12.9426 38.1672 12.8935V13.8267ZM38.7294 12.8926C39.0831 12.9417 39.4059 13.079 39.677 13.2849L39.0162 13.9458C38.9276 13.8932 38.8311 13.8524 38.7294 13.8263V12.8926ZM38.7294 16.9207V15.9857C38.8294 15.9592 38.9236 15.9223 39.0105 15.871L39.6705 16.531C39.4003 16.7348 39.0801 16.8716 38.7294 16.9207ZM40.0724 16.1391L39.4072 15.4739C39.4594 15.3861 39.5019 15.2931 39.528 15.1928H40.4604C40.4109 15.5434 40.2788 15.8684 40.0724 16.1391ZM39.5293 14.6301C39.5028 14.5284 39.4633 14.4333 39.4116 14.3451L40.0733 13.6834C40.2784 13.9549 40.4131 14.2773 40.4622 14.6305H39.5293V14.6301Z" fill="#BFA454"/>
<path d="M46.2392 9.9815V7.58051C46.2392 7.19425 45.9585 6.86708 45.5771 6.80756C44.6616 6.66418 43.0388 6.39349 42.3097 6.16886C41.2643 5.84647 37.2253 4.13632 35.8267 3.81524C34.4277 3.49415 28.1198 1.77966 22.0782 3.87389C21.0558 4.228 16.4568 6.42651 13.7525 7.56965C12.9561 7.58703 5.07319 9.23026 4.65348 10.3565C4.23376 11.4831 4.10211 12.0297 4.02477 12.3156C3.94744 12.6015 4.02477 13.9697 4.61046 14.9225C5.20745 15.2601 6.35667 15.4869 7.68534 15.639C7.67013 15.5577 7.65362 15.4778 7.64319 15.3957C7.62017 15.2201 7.6093 15.0598 7.6093 14.9069C7.6093 12.7583 9.35681 11.0099 11.5058 11.0099C13.6548 11.0099 15.4023 12.7579 15.4023 14.9069C15.4023 15.0172 15.3949 15.1267 15.3866 15.2345C15.3662 15.4756 15.3228 15.7098 15.2598 15.9353C15.2628 15.9353 15.2702 15.9353 15.2702 15.9353L34.6119 15.546C34.6032 15.496 34.5919 15.4465 34.5854 15.3957C34.5623 15.221 34.5515 15.0602 34.5515 14.9069C34.5515 12.7583 36.299 11.0104 38.448 11.0104C40.597 11.0104 42.3449 12.7579 42.3449 14.9069C42.3449 14.9151 42.344 14.9221 42.3436 14.9299L42.4262 14.9229L45.733 14.3003C45.733 14.3003 46.9996 13.626 46.9996 11.7707C47 10.5333 46.2392 9.9815 46.2392 9.9815ZM27.0527 7.70521L19.8293 7.92637C19.9622 6.84406 19.3214 6.60117 19.3214 6.60117C22.1929 3.99468 27.9803 3.90648 27.9803 3.90648L27.0527 7.70521ZM35.1593 7.37457L28.5768 7.59572L29.1734 3.90691C32.5754 3.86259 34.5189 4.61339 34.5189 4.61339L35.4908 6.18189L35.1593 7.37457ZM38.8703 7.35197H37.0363L35.2028 4.83411C36.5784 5.38157 37.6794 5.9212 38.335 6.26227C38.733 6.46909 38.9502 6.91097 38.8703 7.35197Z" fill="#BFA454"/>
</g>
</g>
<defs>
<clipPath id="clip0">
<rect width="50" height="19" fill="white"/>
</clipPath>
<clipPath id="clip1">
<rect width="43" height="43" fill="white" transform="translate(4 -11)"/>
</clipPath>
</defs>
</svg>
