<svg width="20" height="20" viewBox="0 0 20 20" fill="none" xmlns="http://www.w3.org/2000/svg">
<path fill-rule="evenodd" clip-rule="evenodd" d="M3.41667 10.511C3.41667 6.77954 6.39876 3.41699 10.5142 3.41699C14.5375 3.41699 17.5833 6.71569 17.5833 10.4897C17.5833 14.8667 14.0133 17.5837 10.5 17.5837C9.33834 17.5837 8.04917 17.2715 7.01501 16.6614C6.65376 16.4415 6.34917 16.2784 5.95959 16.4061L4.52876 16.8317C4.16751 16.9452 3.84167 16.6614 3.94792 16.2784L4.42251 14.6893C4.50042 14.4694 4.48626 14.2353 4.37292 14.0509C3.76376 12.93 3.41667 11.7028 3.41667 10.511ZM9.57919 10.5109C9.57919 11.0146 9.98294 11.419 10.4859 11.4261C10.9888 11.4261 11.3925 11.0146 11.3925 10.518C11.3925 10.0144 10.9888 9.61001 10.4859 9.61001C9.99002 9.60292 9.57919 10.0144 9.57919 10.5109ZM12.8446 10.518C12.8446 11.0146 13.2484 11.4261 13.7513 11.4261C14.2542 11.4261 14.6579 11.0146 14.6579 10.518C14.6579 10.0144 14.2542 9.61002 13.7513 9.61002C13.2484 9.61002 12.8446 10.0144 12.8446 10.518ZM7.22043 11.4261C6.7246 11.4261 6.31376 11.0146 6.31376 10.518C6.31376 10.0144 6.71751 9.61002 7.22043 9.61002C7.72335 9.61002 8.1271 10.0144 8.1271 10.518C8.1271 11.0146 7.72335 11.419 7.22043 11.4261Z" fill="#2E2E2E"/>
</svg>
