<svg viewBox="0 0 96 94" fill="none" xmlns="http://www.w3.org/2000/svg">
<path d="M48.0371 94C74.0079 94 95.0614 72.9574 95.0614 47C95.0614 21.0426 74.0079 0 48.0371 0C22.0662 0 1.0127 21.0426 1.0127 47C1.0127 72.9574 22.0662 94 48.0371 94Z" fill="#F9F9F9"/>
<path d="M50.8601 43.4182H30.2998V38.0684H50.8601C52.2843 38.0684 53.433 39.2164 53.433 40.64V40.8237C53.433 42.2702 52.2843 43.4182 50.8601 43.4182Z" fill="#FFBE82"/>
<path d="M50.8601 43.4182H30.2998V38.0684H50.8601C52.2843 38.0684 53.433 39.2164 53.433 40.64V40.8237C53.433 42.2702 52.2843 43.4182 50.8601 43.4182Z" fill="#FFBE82"/>
<path d="M41.4184 34.2799L26.8769 48.8139L23.0865 45.0254L37.628 30.4915C38.6388 29.4812 40.2698 29.4812 41.2806 30.4915L41.4184 30.6292C42.4292 31.6395 42.4292 33.2697 41.4184 34.2799Z" fill="#FF965A"/>
<path d="M55.822 48.722H35.2618V43.3722H55.822C57.2463 43.3722 58.3949 44.5203 58.3949 45.9438V46.1275C58.3949 47.574 57.2463 48.722 55.822 48.722Z" fill="#FFBE82"/>
<path d="M52.0776 54.0259H31.5173V48.6761H52.0776C53.5019 48.6761 54.6505 49.8241 54.6505 51.2477V51.4313C54.6734 52.8778 53.5019 54.0259 52.0776 54.0259Z" fill="#FFBE82"/>
<path d="M50.1708 58.572C50.6533 58.0899 50.9749 57.424 50.9749 56.6663C50.9749 55.1969 49.7803 54.0029 48.3101 54.0029H30.966V58.572H50.1708Z" fill="#FFBE82"/>
<path d="M44.1521 58.1587V38.0913H31.4254C30.7822 38.0913 30.139 38.1602 29.5187 38.275V58.1817H44.1521V58.1587Z" fill="#FF965A"/>
<path d="M38.6388 57.7684C33.7916 57.7684 29.8633 53.8422 29.8633 48.9975V38.2061C27.635 38.5276 25.6364 39.5608 24.0973 41.0303H21.4325V56.3678H24.0283C25.8432 58.1128 28.2553 59.2149 30.943 59.3297V59.3527H48.2871C49.3668 59.3527 50.2857 58.7098 50.7222 57.7914L38.6388 57.7684Z" fill="#FF965A"/>
<path d="M46.1048 56.6664C46.1048 57.6077 46.8629 58.3884 47.8277 58.3884H50.3547C50.7452 57.9292 50.9749 57.3322 50.9749 56.6664C50.9749 56.0235 50.7452 55.4265 50.3547 54.9443H47.8277C46.8629 54.9443 46.1048 55.725 46.1048 56.6664Z" fill="#FFCEA1"/>
<path d="M54.3748 52.5335V52.3039H40.6833C39.7414 52.3039 38.9604 53.0845 38.9604 54.0259H51.9857C53.0424 54.0259 53.9383 53.4289 54.3748 52.5335Z" fill="#FF965A"/>
<path d="M58.2342 47H40.7063C39.7644 47 38.9834 47.7806 38.9834 48.722H55.7302C56.8788 48.722 57.8436 48.0102 58.2342 47Z" fill="#FF965A"/>
<path d="M38.9834 43.3493H51.3425C52.2384 43.1427 52.9735 42.4768 53.2722 41.6273H40.6833C39.7415 41.6273 38.9834 42.4079 38.9834 43.3493Z" fill="#FF965A"/>
<path d="M48.6088 40.7548C48.6088 41.6962 49.3669 42.4768 50.3317 42.4768H52.8127C53.2032 42.0176 53.4329 41.4206 53.4329 40.7548C53.4329 40.1119 53.2032 39.5149 52.8127 39.0327H50.3317C49.3898 39.0327 48.6088 39.7904 48.6088 40.7548Z" fill="#FFCEA1"/>
<path d="M53.4329 46.0586C53.4329 47 54.191 47.7807 55.1558 47.7807H57.7747C58.1652 47.3215 58.3949 46.7245 58.3949 46.0586C58.3949 45.3928 58.1652 44.8188 57.7747 44.3366H55.1558C54.214 44.3366 53.4329 45.1173 53.4329 46.0586Z" fill="#FFCEA1"/>
<path d="M51.3424 49.6405C50.4006 49.6405 49.6195 50.3981 49.6195 51.3625C49.6195 52.3039 50.3776 53.0845 51.3424 53.0845H54.0532C54.4437 52.6253 54.6734 52.0283 54.6734 51.3625C54.6734 50.6966 54.4437 50.1226 54.0532 49.6405H51.3424Z" fill="#FFCEA1"/>
<path d="M14.38 41.0303H21.6622V56.3679H14.38V41.0303Z" fill="#FF965A"/>
<path d="M18.6528 38.0684H1.81411C1.2398 40.9385 0.941162 43.8774 0.941162 46.9082C0.941162 50.9951 1.4925 54.9443 2.50328 58.6869H18.6528V38.0684Z" fill="#565656"/>
<path d="M93.1062 70.4426V30.8818C93.1062 28.8842 91.4751 27.254 89.4765 27.254H74.4986L64.6205 29.596L53.3411 27.254H42.9116V70.4426H93.1062Z" fill="#BFA454"/>
<path d="M72.7757 37.7469C73.0284 37.4714 73.1662 37.127 73.1662 36.7596V27.254H57.7977V37.7469H72.7757Z" fill="#D6D6D6"/>
<path d="M72.1784 36.6678L71.8108 37.0581C71.2365 37.6551 70.2717 37.6551 69.6974 37.0581L69.3298 36.6678C68.7555 36.0708 67.7907 36.0708 67.2164 36.6678L66.8488 37.0581C66.2745 37.6551 65.3097 37.6551 64.7353 37.0581L64.3678 36.6678C63.7935 36.0708 62.8286 36.0708 62.2543 36.6678L61.8868 37.0581C61.3125 37.6551 60.3476 37.6551 59.7733 37.0581L59.4976 36.7596C58.7625 36.0019 58.349 34.9687 58.349 33.9125V27.254H53.3411V36.7596C53.3411 37.127 53.4789 37.4944 53.7546 37.7699L54.7653 38.8261C55.3397 39.423 56.3045 39.423 56.8788 38.8261L57.2464 38.4357C57.8207 37.8388 58.7855 37.8388 59.3598 38.4357L59.7274 38.8261C60.3017 39.423 61.2665 39.423 61.8408 38.8261L62.2084 38.4357C62.7827 37.8388 63.7475 37.8388 64.3218 38.4357L64.6894 38.8261C65.2637 39.423 66.2285 39.423 66.8029 38.8261L67.1704 38.4357C67.7447 37.8388 68.7096 37.8388 69.2839 38.4357L69.6514 38.8261C70.2257 39.423 71.1906 39.423 71.7649 38.8261L72.7757 37.7699C73.0284 37.4944 73.1892 37.127 73.1892 36.7596V36.2086C72.7986 36.2545 72.4311 36.3923 72.1784 36.6678Z" fill="#A8A8A8"/>
<path d="M88.7644 70.1671L79.4376 69.9145C79.4376 71.0625 69.2149 69.8227 66.8947 69.8227C66.0907 70.6263 63.4029 69.7079 62.2543 69.7079C58.2571 69.7079 54.1451 69.7079 50.3546 69.7079C50.033 69.7079 49.7344 69.5472 49.5736 69.2487C49.5736 69.2487 49.5736 69.2257 49.5506 69.2257C49.229 68.6287 49.6425 67.894 50.3316 67.871C51.6181 67.8481 52.3073 67.6874 52.9505 66.9067C53.8005 65.8046 53.7775 64.5418 52.9505 63.4856C52.9505 63.4856 52.9505 63.4856 52.9275 63.4626C52.6289 63.1182 52.8586 62.5672 53.341 62.5672C55.041 62.5901 55.7072 62.5213 56.4423 61.8324C56.649 61.6488 56.8098 61.4421 56.9477 61.2125C57.2463 60.8222 57.3382 60.1563 57.3152 59.5594C57.2923 59.1231 57.0855 58.7787 56.7409 58.2277C56.2815 57.6077 55.5464 57.1944 54.6275 57.1944H54.5126C53.2032 57.1944 52.2384 56.0694 52.3302 54.7606C52.3762 54.1407 52.2154 53.5208 51.8019 52.9468C51.2735 52.258 50.4925 51.8676 49.6655 51.8676C46.3804 51.8676 43.7156 49.2042 43.7156 45.9209V27.2311H36.3185C34.7105 27.2311 33.424 28.5398 33.424 30.1241V72.2335C33.424 73.8408 34.7334 75.1265 36.3185 75.1265H90.2116C91.8197 75.1265 93.1061 73.8178 93.1061 72.2335V69.6849" fill="#AF9145"/>
<path d="M46.748 57.2403H26.1877V51.8906H46.748C48.1723 51.8906 49.3209 53.0386 49.3209 54.4621V54.6458C49.3209 56.0694 48.1723 57.2403 46.748 57.2403Z" fill="#FFBE82"/>
<path d="M46.748 57.2403H26.1877V51.8906H46.748C48.1723 51.8906 49.3209 53.0386 49.3209 54.4621V54.6458C49.3209 56.0694 48.1723 57.2403 46.748 57.2403Z" fill="#FFBE82"/>
<path d="M37.3064 48.1021L22.7649 62.6131L18.9745 58.8246L33.5159 44.2907C34.5267 43.2804 36.1578 43.2804 37.1685 44.2907L37.3064 44.4284C38.2942 45.4617 38.2942 47.0919 37.3064 48.1021Z" fill="#FFBE82"/>
<path d="M51.71 62.5442H31.1498V57.1944H51.71C53.1343 57.1944 54.2829 58.3424 54.2829 59.766V59.9497C54.2829 61.3962 53.1343 62.5442 51.71 62.5442Z" fill="#FFBE82"/>
<path d="M47.9655 67.8481H27.4053V62.4983H47.9655C49.3898 62.4983 50.5384 63.6463 50.5384 65.0698V65.2535C50.5614 66.7 49.3898 67.8481 47.9655 67.8481Z" fill="#FFBE82"/>
<path d="M46.0588 72.3713C46.5413 71.8891 46.8629 71.2233 46.8629 70.4656C46.8629 68.9961 45.6683 67.8021 44.1981 67.8021H26.854V72.3713H46.0588Z" fill="#FFBE82"/>
<path d="M40.04 71.958V51.8906H27.3134C26.6702 51.8906 26.0269 51.9595 25.4067 52.0743V71.9809L40.04 71.958Z" fill="#FFBE82"/>
<path d="M34.5267 71.5907C29.6795 71.5907 25.7513 67.6644 25.7513 62.8198V52.0284C23.523 52.3498 21.5244 53.383 19.9852 54.8525H17.3204V70.1901H19.9163C21.7311 71.9351 24.1432 73.0372 26.831 73.152V73.1749H44.1751C45.2548 73.1749 46.1737 72.532 46.6101 71.6136L34.5267 71.5907Z" fill="#FF965A"/>
<path d="M41.9927 70.4885C41.9927 71.4299 42.7508 72.2105 43.7156 72.2105H46.2426C46.6331 71.7513 46.8628 71.1544 46.8628 70.4885C46.8628 69.8456 46.6331 69.2486 46.2426 68.7665H43.7156C42.7508 68.7665 41.9927 69.5242 41.9927 70.4885Z" fill="#FFCEA1"/>
<path d="M50.2628 66.3556V66.126H36.5713C35.6294 66.126 34.8484 66.9067 34.8484 67.848H47.8737C48.9304 67.848 49.8263 67.2281 50.2628 66.3556Z" fill="#FF965A"/>
<path d="M54.1221 60.8222H36.5942C35.6523 60.8222 34.8713 61.6028 34.8713 62.5442H51.6181C52.7667 62.5442 53.7316 61.8324 54.1221 60.8222Z" fill="#FF965A"/>
<path d="M34.8713 57.1715H47.2304C48.1263 56.9648 48.8614 56.299 49.1601 55.4494H36.5712C35.6294 55.4494 34.8713 56.2071 34.8713 57.1715Z" fill="#FF965A"/>
<path d="M44.4967 54.554C44.4967 55.4954 45.2548 56.276 46.2196 56.276H48.7006C49.0912 55.8168 49.3209 55.2198 49.3209 54.554C49.3209 53.8881 49.0912 53.3141 48.7006 52.832H46.2196C45.2778 52.8549 44.4967 53.6126 44.4967 54.554Z" fill="#FFCEA1"/>
<path d="M49.3209 59.8578C49.3209 60.7992 50.079 61.5799 51.0439 61.5799H53.6627C54.0532 61.1207 54.283 60.5237 54.283 59.8578C54.283 59.2149 54.0532 58.618 53.6627 58.1358H51.0439C50.079 58.1588 49.3209 58.9165 49.3209 59.8578Z" fill="#FFCEA1"/>
<path d="M47.2304 63.4626C46.2885 63.4626 45.5075 64.2203 45.5075 65.1847C45.5075 66.126 46.2656 66.9067 47.2304 66.9067H49.9411C50.3317 66.4475 50.5614 65.8505 50.5614 65.1847C50.5614 64.5418 50.3317 63.9448 49.9411 63.4626H47.2304Z" fill="#FFCEA1"/>
<path d="M10.2679 54.8295H17.5502V70.1671H10.2679V54.8295Z" fill="#FF965A"/>
<path d="M8.95847 73.1519L14.5408 72.509C14.5408 70.3737 14.5408 55.1739 14.5408 51.8906H1.2168C2.06677 59.4905 4.77751 67.1822 8.95847 73.1519Z" fill="#727272"/>
<path d="M92.0723 69.6849H55.9139V74.254H92.0723V69.6849Z" fill="#AF9145"/>
</svg>
