<svg width="28" height="28" viewBox="0 0 28 28" fill="none" xmlns="http://www.w3.org/2000/svg">
<path fill-rule="evenodd" clip-rule="evenodd" d="M16.649 4.90891C16.4369 4.8785 16.2239 4.94121 16.0544 5.07612C15.8802 5.21293 15.7713 5.41054 15.7476 5.63191C15.6974 6.0794 16.0203 6.48413 16.4672 6.53448C19.5491 6.87841 21.9446 9.27924 22.2911 12.3708C22.3375 12.785 22.685 13.0976 23.0997 13.0976C23.131 13.0976 23.1613 13.0957 23.1925 13.0919C23.4093 13.0681 23.6025 12.9608 23.7388 12.7898C23.8742 12.6187 23.9358 12.4059 23.9112 12.1884C23.4794 8.33107 20.4941 5.33739 16.649 4.90891ZM16.7079 8.21931C16.2553 8.13571 15.8396 8.42453 15.7535 8.86631C15.6673 9.30809 15.957 9.73943 16.3973 9.82588C17.7229 10.0843 18.7464 11.1104 19.0058 12.4405V12.4414C19.0797 12.8243 19.4167 13.1027 19.8049 13.1027C19.857 13.1027 19.9091 13.0979 19.9621 13.0884C20.4024 13.0001 20.6921 12.5697 20.606 12.127C20.2187 10.1404 18.6896 8.60599 16.7079 8.21931ZM18.2121 17.3469C18.6413 17.0994 19.1261 16.8199 19.7376 16.9499C20.2915 17.0668 22.1795 18.5993 22.6964 19.1304C23.0354 19.4781 23.2238 19.8372 23.2532 20.1963C23.3043 21.6053 21.3898 23.2138 21.0414 23.4142C20.5784 23.7477 20.0396 23.9159 19.4346 23.9159C18.8163 23.9159 18.1271 23.7401 17.3753 23.3895C13.2963 21.687 7.06526 15.579 5.41778 11.5317C4.73417 10.0249 4.72943 8.78217 5.40641 7.84825C5.67626 7.41026 7.21486 5.57947 8.59249 5.63743C8.95891 5.66878 9.31492 5.85689 9.6643 6.19892C10.1926 6.71671 11.6867 8.6102 11.8022 9.166C11.9301 9.78354 11.6498 10.2747 11.4008 10.7061C11.3477 10.7988 11.2761 10.9088 11.1977 11.0294C10.9002 11.4869 10.5041 12.0958 10.6443 12.4846C11.6489 14.951 13.9695 17.1029 16.437 18.1138C16.8185 18.2525 17.4272 17.8536 17.8832 17.5547C18.002 17.4769 18.1105 17.4058 18.2019 17.3528L18.2121 17.3469Z" fill="#BFA454"/>
</svg>
