<svg width="50" height="19" viewBox="0 0 50 19" fill="none" xmlns="http://www.w3.org/2000/svg">
<g clip-path="url(#clip0)">
<g clip-path="url(#clip1)">
<path d="M9.41001 11.6432C7.35278 11.6432 5.68433 13.3101 5.68433 15.3683C5.68433 15.528 5.69714 15.6842 5.71685 15.8369C5.94795 17.6744 7.51144 19.0945 9.40951 19.0945C11.3603 19.0945 12.9583 17.5955 13.1199 15.6866C13.1288 15.5812 13.1362 15.4758 13.1362 15.3683C13.1367 13.3101 11.4687 11.6432 9.41001 11.6432ZM7.54396 13.9645L8.30428 14.7248C8.24465 14.8263 8.19883 14.9362 8.16926 15.0525H7.09802C7.15371 14.646 7.30892 14.2764 7.54396 13.9645ZM7.09408 15.697H8.17271C8.20326 15.8118 8.2481 15.9207 8.30773 16.0202L7.54593 16.782C7.31139 16.4721 7.15124 16.1015 7.09408 15.697ZM9.08775 17.6828C8.68468 17.6276 8.31709 17.4689 8.00715 17.2353L8.7645 16.4775C8.86404 16.5356 8.97343 16.5785 9.08775 16.6086V17.6828ZM9.08775 14.1291C8.97047 14.1596 8.86059 14.2064 8.75859 14.2666L7.99926 13.5072C8.31117 13.2707 8.68172 13.113 9.08775 13.0574V14.1291ZM9.73276 13.0574C10.1398 13.113 10.5098 13.2707 10.8212 13.5077L10.0624 14.2666C9.96041 14.2064 9.85052 14.1591 9.73276 14.1291V13.0574ZM9.73276 17.6828V16.6076C9.84757 16.5775 9.95647 16.5352 10.0565 16.4755L10.8143 17.2344C10.5039 17.4689 10.1368 17.6266 9.73276 17.6828ZM11.2765 16.784L10.5123 16.0197C10.5714 15.9197 10.6207 15.8128 10.6512 15.697H11.7215C11.6648 16.1015 11.5126 16.4741 11.2765 16.784ZM10.6517 15.0525C10.6222 14.9362 10.5763 14.8263 10.5167 14.7248L11.277 13.9645C11.5126 14.2764 11.6673 14.646 11.723 15.0525H10.6517Z" fill="#BFA454"/>
<path d="M41.3736 11.6432C39.3159 11.6432 37.6479 13.3101 37.6479 15.3683C37.6479 15.528 37.6603 15.6842 37.68 15.8369C37.9106 17.6744 39.4751 19.0945 41.3726 19.0945C43.3229 19.0945 44.9209 17.5955 45.083 15.6866C45.0919 15.5812 45.0983 15.4758 45.0983 15.3683C45.0993 13.3101 43.4318 11.6432 41.3736 11.6432ZM39.5071 13.9645L40.2674 14.7248C40.2083 14.8263 40.162 14.9362 40.1329 15.0525H39.0612C39.1168 14.646 39.2721 14.2764 39.5071 13.9645ZM39.0577 15.697H40.1368C40.1674 15.8118 40.2117 15.9207 40.2709 16.0202L39.5096 16.782C39.2745 16.4721 39.1144 16.1015 39.0577 15.697ZM41.0509 17.6828C40.6478 17.6276 40.2807 17.4689 39.9708 17.2353L40.7281 16.4775C40.8272 16.5356 40.9371 16.5785 41.0509 16.6086V17.6828ZM41.0509 14.1291C40.9341 14.1596 40.8237 14.2064 40.7212 14.2666L39.9619 13.5072C40.2743 13.2707 40.6444 13.113 41.0504 13.0574L41.0509 14.1291ZM41.6964 13.0574C42.1024 13.113 42.473 13.2707 42.7849 13.5077L42.0255 14.2666C41.9235 14.2064 41.8132 14.1591 41.6964 14.1291V13.0574ZM41.6964 17.6828V16.6076C41.8102 16.5775 41.9201 16.5352 42.0191 16.4755L42.777 17.2344C42.467 17.4689 42.0995 17.6266 41.6964 17.6828ZM43.2397 16.784L42.4754 16.0197C42.5345 15.9197 42.5838 15.8128 42.6139 15.697H43.6851C43.628 16.1015 43.4752 16.4741 43.2397 16.784ZM42.6144 15.0525C42.5848 14.9362 42.5395 14.8263 42.4803 14.7248L43.2402 13.9645C43.4757 14.2764 43.6304 14.646 43.6866 15.0525H42.6144Z" fill="#BFA454"/>
<path d="M48.8271 8.62173C48.7995 7.79885 48.5728 6.99518 48.1673 6.27923L45.4917 1.55824C45.0531 0.785124 44.2494 0.290408 43.362 0.245568C38.878 0.0208769 25.1293 -0.551693 20.801 0.61217C17.873 1.40007 10.4848 6.25705 10.4848 6.25705C10.4848 6.25705 2.35587 7.51602 0.805187 11.2234C0.805187 11.2234 0.136033 11.6142 0.014324 12.6159C-0.0482552 13.1313 0.104497 13.9138 0.273018 14.5697C0.457799 15.2871 1.05255 15.8271 1.78428 15.941L5.31237 16.4938C5.25964 16.3012 5.21579 16.1055 5.19017 15.9035C5.16799 15.7291 5.15321 15.5507 5.15321 15.3679C5.15321 13.021 7.06261 11.1121 9.41007 11.1121C11.758 11.1121 13.6674 13.021 13.6674 15.3679C13.6674 15.4906 13.6595 15.6108 13.6497 15.7301C13.6142 16.1459 13.5176 16.5436 13.3703 16.9166L13.7852 16.9388L37.2243 16.3046C37.1942 16.1726 37.1706 16.0395 37.1529 15.9035C37.1302 15.7291 37.1164 15.5507 37.1164 15.3679C37.1164 13.021 39.0258 11.1121 41.3728 11.1121C43.7207 11.1121 45.6301 13.021 45.6301 15.3679C45.6301 15.4906 45.6222 15.6108 45.6119 15.7301C45.6055 15.8089 45.5917 15.8853 45.5813 15.9631L47.6041 15.5502C48.4383 15.3797 49.0286 14.6337 48.999 13.7818L48.8271 8.62173ZM35.3376 1.11773L35.8761 6.49406L27.6108 6.83209V1.09062C30.0272 1.03494 32.7856 1.06007 35.3376 1.11773ZM14.4805 7.21643L13.663 7.26225C13.4408 7.27457 13.2373 7.13956 13.1624 6.92965C13.0875 6.72073 13.1599 6.48766 13.3388 6.35609C13.8192 6.00526 14.4075 5.58594 15.0629 5.14296V6.51476C14.6638 6.85229 14.4805 7.21643 14.4805 7.21643ZM16.5062 5.95796C16.4544 5.95993 16.412 5.97274 16.3628 5.97767V4.291C18.0292 3.23456 19.918 2.1855 21.5421 1.65975C22.2812 1.42076 23.6293 1.26801 25.3047 1.17686V6.9262L18.2032 7.21643C18.2032 7.21643 17.9568 5.90376 16.5062 5.95796ZM45.2187 5.43663C44.9708 5.86729 44.5195 6.14076 44.0233 6.16146L38.1832 6.39995L37.6599 1.17981C40.0734 1.25323 42.0897 1.3439 43.1112 1.39908C43.5837 1.42421 44.01 1.6967 44.2302 2.11553L45.2438 4.03872C45.4759 4.47874 45.466 5.00696 45.2187 5.43663Z" fill="#BFA454"/>
</g>
</g>
<defs>
<clipPath id="clip0">
<rect width="50" height="19" fill="white"/>
</clipPath>
<clipPath id="clip1">
<rect width="49" height="49" fill="white" transform="translate(0 -15)"/>
</clipPath>
</defs>
</svg>
