<svg width="22" height="27" viewBox="0 0 22 27" fill="none" xmlns="http://www.w3.org/2000/svg">
<g clip-path="url(#clip0)">
<rect width="22" height="27" fill="white"/>
<path fill-rule="evenodd" clip-rule="evenodd" d="M6.62841 2.3266C9.38224 0.726501 12.7672 0.754468 15.4951 2.39986C18.1963 4.07876 19.838 7.0751 19.8227 10.2983C19.7598 13.5004 17.9995 16.5104 15.799 18.8372C14.529 20.1862 13.1082 21.3791 11.5657 22.3915C11.4069 22.4834 11.2329 22.5449 11.0523 22.573C10.8785 22.5656 10.7093 22.5142 10.5598 22.4235C8.20494 20.9024 6.13901 18.9607 4.46139 16.6918C3.05761 14.7979 2.26007 12.5098 2.17709 10.1382C2.17527 6.90881 3.87458 3.92669 6.62841 2.3266ZM8.21973 11.4748C8.68296 12.6168 9.77636 13.3617 10.9894 13.3617C11.7841 13.3674 12.548 13.0491 13.111 12.4777C13.6739 11.9063 13.9891 11.1293 13.9862 10.3198C13.9905 9.08412 13.263 7.96774 12.1435 7.49188C11.024 7.01602 9.73334 7.27455 8.87408 8.14676C8.01482 9.01896 7.7565 10.3328 8.21973 11.4748Z" fill="#BFA454"/>
<ellipse opacity="0.4" cx="11" cy="25.0938" rx="6.30208" ry="1.26042" fill="#BFA454"/>
</g>
<defs>
<clipPath id="clip0">
<rect width="22" height="27" fill="white"/>
</clipPath>
</defs>
</svg>
