<svg width="40" height="27" viewBox="0 0 40 27" fill="none" xmlns="http://www.w3.org/2000/svg">
<path d="M40 6.36648V4.29545C40 1.92528 38.0391 0 35.625 0H4.375C1.96094 0 0 1.92528 0 4.29545V6.36648C0 6.58125 0.171875 6.75 0.390625 6.75H39.6094C39.8281 6.75 40 6.58125 40 6.36648Z" fill="#BFA454"/>
<path d="M0 9.58811V22.7046C0 25.0748 1.96094 27 4.375 27H35.625C38.0391 27 40 25.0748 40 22.7046V9.58811C40 9.37334 39.8281 9.20459 39.6094 9.20459H0.390625C0.171875 9.20459 0 9.37334 0 9.58811ZM10 19.6364C10 20.3114 9.4375 20.8637 8.75 20.8637H7.5C6.8125 20.8637 6.25 20.3114 6.25 19.6364V18.4091C6.25 17.7341 6.8125 17.1819 7.5 17.1819H8.75C9.4375 17.1819 10 17.7341 10 18.4091V19.6364Z" fill="#BFA454"/>
</svg>
