<svg width="11" height="11" viewBox="0 0 11 11" fill="none" xmlns="http://www.w3.org/2000/svg">
<path fill-rule="evenodd" clip-rule="evenodd" d="M5.50001 10.9168C2.51001 10.9168 0.0833435 8.49558 0.0833435 5.50016C0.0833435 2.51016 2.51001 0.0834961 5.50001 0.0834961C8.49543 0.0834961 10.9167 2.51016 10.9167 5.50016C10.9167 8.49558 8.49543 10.9168 5.50001 10.9168ZM7.22794 7.50975C7.29294 7.54767 7.36335 7.56933 7.43919 7.56933C7.5746 7.56933 7.71002 7.49892 7.78585 7.36892C7.8996 7.17933 7.84002 6.93017 7.64502 6.811L5.71669 5.66267V3.16017C5.71669 2.93267 5.53252 2.75392 5.31044 2.75392C5.08835 2.75392 4.90419 2.93267 4.90419 3.16017V5.89558C4.90419 6.03642 4.98002 6.16642 5.1046 6.24225L7.22794 7.50975Z" fill="#BDBDBD"/>
</svg>
