<svg width="25" height="25" viewBox="0 0 25 25" fill="none" xmlns="http://www.w3.org/2000/svg">
<g clip-path="url(#clip0)">
<path fill-rule="evenodd" clip-rule="evenodd" d="M14.954 2.09163C14.7216 2.05832 14.4882 2.12703 14.3025 2.27484C14.1116 2.42474 13.9923 2.64126 13.9664 2.8838C13.9114 3.37409 14.2652 3.81753 14.7548 3.8727C18.1315 4.24953 20.7562 6.88001 21.1358 10.2673C21.1867 10.7211 21.5674 11.0636 22.0218 11.0636C22.056 11.0636 22.0892 11.0615 22.1234 11.0574C22.361 11.0313 22.5726 10.9137 22.722 10.7263C22.8704 10.539 22.9378 10.3058 22.9108 10.0674C22.4378 5.84114 19.1669 2.5611 14.954 2.09163ZM15.0189 5.71873C14.523 5.62713 14.0676 5.94358 13.9732 6.42762C13.8788 6.91166 14.1962 7.38425 14.6786 7.47898C16.131 7.76212 17.2524 8.88635 17.5366 10.3437V10.3447C17.6176 10.7642 17.9869 11.0692 18.4122 11.0692C18.4693 11.0692 18.5263 11.064 18.5844 11.0536C19.0668 10.9568 19.3842 10.4852 19.2898 10.0002C18.8655 7.82353 17.1902 6.1424 15.0189 5.71873ZM16.6667 15.7193C17.137 15.4481 17.6682 15.1418 18.3382 15.2844C18.9451 15.4124 21.0136 17.0915 21.5801 17.6733C21.9514 18.0543 22.1579 18.4478 22.19 18.8413C22.2461 20.385 20.1484 22.1474 19.7667 22.367C19.2594 22.7324 18.6691 22.9166 18.0062 22.9166C17.3288 22.9166 16.5736 22.724 15.7499 22.3399C11.2808 20.4745 4.45366 13.7823 2.64858 9.34781C1.89958 7.69687 1.8944 6.3353 2.63614 5.31204C2.93179 4.83217 4.61757 2.82625 6.12698 2.88975C6.52845 2.9241 6.91851 3.13021 7.30131 3.50495C7.88018 4.07227 9.51719 6.14689 9.64376 6.75584C9.78381 7.43246 9.47674 7.97063 9.2039 8.44323C9.14571 8.54482 9.0673 8.66538 8.9814 8.79746C8.6554 9.29874 8.22148 9.96595 8.37502 10.3919C9.4757 13.0942 12.0184 15.452 14.7218 16.5595C15.1399 16.7115 15.8067 16.2745 16.3064 15.947C16.4366 15.8617 16.5554 15.7838 16.6555 15.7257L16.6667 15.7193Z" fill="#2E2E2E"/>
</g>
<defs>
<clipPath id="clip0">
<rect width="25" height="25" fill="white"/>
</clipPath>
</defs>
</svg>
