<svg width="25" height="25" viewBox="0 0 25 25" fill="none" xmlns="http://www.w3.org/2000/svg">
<g clip-path="url(#clip0)">
<path fill-rule="evenodd" clip-rule="evenodd" d="M6.66275 0H18.3253C22.5753 0 25.0002 2.4 25.0002 6.6625V18.3375C25.0002 22.575 22.5877 25 18.3377 25H6.66275C2.40025 25 0.000249863 22.575 0.000249863 18.3375V6.6625C0.000249863 2.4 2.40025 0 6.66275 0ZM13.5253 13.5372H17.0753C17.6502 13.5247 18.1127 13.0622 18.1127 12.4872C18.1127 11.9122 17.6502 11.4497 17.0753 11.4497H13.5253V7.92471C13.5253 7.34971 13.0627 6.88721 12.4878 6.88721C11.9128 6.88721 11.4503 7.34971 11.4503 7.92471V11.4497H7.91275C7.63775 11.4497 7.37525 11.5622 7.17525 11.7497C6.98775 11.9497 6.87525 12.211 6.87525 12.4872C6.87525 13.0622 7.33775 13.5247 7.91275 13.5372H11.4503V17.0747C11.4503 17.6497 11.9128 18.1122 12.4878 18.1122C13.0627 18.1122 13.5253 17.6497 13.5253 17.0747V13.5372Z" fill="white"/>
</g>
<defs>
<clipPath id="clip0">
<rect width="25" height="25" fill="white"/>
</clipPath>
</defs>
</svg>
