<svg width="50" height="19" viewBox="0 0 50 19" fill="none" xmlns="http://www.w3.org/2000/svg">
<g clip-path="url(#clip0)">
<g clip-path="url(#clip1)">
<path d="M10.7148 11.3962C8.88252 11.3962 7.39673 12.8808 7.39673 14.7139C7.39673 14.8559 7.40821 14.9944 7.42606 15.1313C7.63139 16.7668 9.02408 18.0323 10.7148 18.0323C12.4522 18.0323 13.8751 16.6966 14.0192 14.9966C14.0269 14.9026 14.0337 14.8095 14.0337 14.713C14.0341 12.8812 12.5483 11.3962 10.7148 11.3962ZM9.05299 13.4636L9.7302 14.1408C9.67749 14.2314 9.63625 14.3283 9.60989 14.4329H8.6555C8.70524 14.0707 8.84426 13.7412 9.05299 13.4636ZM8.65253 15.0068H9.6133C9.6405 15.1084 9.68046 15.2062 9.73318 15.2946L9.05469 15.9726C8.84553 15.6967 8.70312 15.3664 8.65253 15.0068ZM10.4282 16.7757C10.069 16.726 9.74211 16.5852 9.46578 16.3765L10.1404 15.7018C10.2289 15.7537 10.3266 15.7915 10.4282 15.8179V16.7757ZM10.4282 13.6103C10.3237 13.6366 10.2259 13.6787 10.1349 13.7327L9.45898 13.0563C9.73658 12.8455 10.0665 12.7056 10.4282 12.6554V13.6103ZM11.003 12.6554C11.3652 12.7056 11.6947 12.8455 11.9723 13.0568L11.2963 13.7327C11.2054 13.6787 11.1076 13.6366 11.003 13.6103V12.6554ZM11.003 16.7753V15.8179C11.105 15.7911 11.202 15.7533 11.2908 15.701L11.9659 16.3765C11.6891 16.584 11.3618 16.7251 11.003 16.7753ZM12.3778 15.9752L11.6972 15.2937C11.7499 15.2049 11.7937 15.1092 11.8209 15.0063H12.7745C12.7235 15.3664 12.587 15.6989 12.3778 15.9752ZM11.8209 14.432C11.7942 14.3283 11.7533 14.2305 11.7006 14.14L12.3778 13.4627C12.5874 13.7403 12.7256 14.0702 12.7753 14.4312L11.8209 14.432Z" fill="#BFA454"/>
<path d="M38.6489 11.3962C36.8166 11.3962 35.3308 12.8808 35.3308 14.7139C35.3308 14.8559 35.3423 14.9944 35.3601 15.1313C35.5651 16.7668 36.9582 18.0323 38.6484 18.0323C40.3859 18.0323 41.8092 16.6966 41.9529 14.9966C41.9605 14.9026 41.9673 14.8095 41.9673 14.713C41.9682 12.8812 40.4824 11.3962 38.6489 11.3962ZM36.9866 13.4636L37.6643 14.1408C37.6116 14.2314 37.5699 14.3283 37.544 14.4329H36.5896C36.6393 14.0707 36.7779 13.7412 36.9866 13.4636ZM36.5866 15.0068H37.5474C37.5746 15.1084 37.6145 15.2062 37.6673 15.2946L36.9888 15.9722C36.78 15.6967 36.6372 15.3664 36.5866 15.0068ZM38.3623 16.7757C38.0031 16.726 37.6762 16.5852 37.3999 16.3765L38.0745 15.7018C38.1629 15.7537 38.2607 15.7915 38.3623 15.8179V16.7757ZM38.3623 13.6103C38.2578 13.6366 38.16 13.6787 38.0694 13.7327L37.3931 13.0563C37.6707 12.8455 38.001 12.7056 38.3623 12.6554V13.6103ZM38.9367 12.6554C39.2989 12.7056 39.6283 12.8455 39.9055 13.0568L39.2296 13.7327C39.1386 13.6787 39.0408 13.6366 38.9367 13.6103V12.6554ZM38.9367 16.7753V15.8179C39.0383 15.7911 39.1356 15.7533 39.2245 15.701L39.8996 16.3765C39.6228 16.584 39.2963 16.7251 38.9367 16.7753ZM40.3115 15.9752L39.6309 15.2937C39.6836 15.2049 39.7274 15.1092 39.7546 15.0063H40.7081C40.6571 15.3664 40.5215 15.6989 40.3115 15.9752ZM39.7554 14.432C39.7287 14.3283 39.6878 14.2305 39.6351 14.14L40.3123 13.4627C40.5219 13.7403 40.6601 14.0702 40.7103 14.4312L39.7554 14.432Z" fill="#BFA454"/>
<path d="M45.7143 10.3406L45.0766 9.73144L45.0779 7.80948C45.0783 7.30487 44.8917 6.81853 44.5537 6.44443L42.1965 3.83378V3.8325C42.185 3.29005 41.7956 2.83177 41.2625 2.73187C38.4597 2.20515 29.7635 0.843491 22.8804 2.69276C18.6279 3.83505 14.3044 6.13452 14.3044 6.13452C14.3044 6.13452 6.79685 7.09103 4.99775 9.43599C4.37113 10.2522 4.1084 11.3244 4.01318 12.2902C3.88011 13.64 4.76776 14.8724 6.09031 15.1704L6.78452 15.3269C6.77857 15.289 6.76964 15.252 6.76497 15.2129C6.74201 15.0361 6.73053 14.8711 6.73053 14.7126C6.73053 12.5151 8.51858 10.7275 10.716 10.7275C12.9139 10.7275 14.7019 12.5151 14.7019 14.7126C14.7019 14.8278 14.6943 14.9391 14.6849 15.0518C14.6734 15.1874 14.6543 15.3209 14.6292 15.4518L34.7471 15.4926C34.7288 15.4 34.7106 15.3077 34.6986 15.2129C34.6757 15.0361 34.6642 14.8711 34.6642 14.7126C34.6642 12.5151 36.4523 10.7275 38.6497 10.7275C40.8476 10.7275 42.6356 12.5151 42.6356 14.7126C42.6356 14.8278 42.628 14.9391 42.6186 15.0518C42.6059 15.207 42.5803 15.3592 42.5497 15.5084L42.8244 15.5088L43.9688 14.8818C45.1625 14.2283 45.9252 12.9951 45.9766 11.6355L45.9996 11.0408C46.0089 10.7781 45.9056 10.5239 45.7143 10.3406ZM18.2593 6.40489L18.5671 5.17502C18.5671 5.17502 23.2268 2.73739 31.0256 3.00267V6.63701L18.5352 7.62243C18.5352 7.62243 18.6024 6.84276 18.2593 6.40489ZM38.273 6.06565L32.4 6.52903V3.07919C34.3313 3.21948 36.4302 3.52429 38.6829 4.06844C38.9107 4.12328 39.0935 4.29248 39.1662 4.51524C39.2393 4.738 39.1917 4.98287 39.04 5.16142L38.273 6.06565Z" fill="#BFA454"/>
</g>
</g>
<defs>
<clipPath id="clip0">
<rect width="50" height="19" fill="white"/>
</clipPath>
<clipPath id="clip1">
<rect width="42" height="42" fill="white" transform="translate(4 -11)"/>
</clipPath>
</defs>
</svg>
