<svg width="25" height="25" viewBox="0 0 25 25" fill="none" xmlns="http://www.w3.org/2000/svg">
<g clip-path="url(#clip0)">
<path fill-rule="evenodd" clip-rule="evenodd" d="M1.13635 12.5171C1.13635 6.53081 5.92044 1.13635 12.5227 1.13635C18.9773 1.13635 23.8636 6.42838 23.8636 12.4829C23.8636 19.5048 18.1364 23.8636 12.5 23.8636C10.6364 23.8636 8.56817 23.3629 6.90908 22.3841C6.32953 22.0313 5.8409 21.7696 5.2159 21.9744L2.92044 22.6573C2.3409 22.8394 1.81817 22.3841 1.98863 21.7696L2.74999 19.2203C2.87499 18.8675 2.85226 18.4919 2.67044 18.196C1.69317 16.3979 1.13635 14.429 1.13635 12.5171ZM11.0228 12.5171C11.0228 13.3252 11.6705 13.9739 12.4773 13.9853C13.2841 13.9853 13.9318 13.3252 13.9318 12.5285C13.9318 11.7205 13.2841 11.0718 12.4773 11.0718C11.6818 11.0604 11.0228 11.7205 11.0228 12.5171ZM16.2614 12.5285C16.2614 13.3252 16.9091 13.9852 17.7159 13.9852C18.5227 13.9852 19.1704 13.3252 19.1704 12.5285C19.1704 11.7205 18.5227 11.0718 17.7159 11.0718C16.9091 11.0718 16.2614 11.7205 16.2614 12.5285ZM7.23868 13.9852C6.44322 13.9852 5.78413 13.3252 5.78413 12.5285C5.78413 11.7205 6.43186 11.0718 7.23868 11.0718C8.0455 11.0718 8.69322 11.7205 8.69322 12.5285C8.69322 13.3252 8.0455 13.9739 7.23868 13.9852Z" fill="#BDBDBD"/>
</g>
<defs>
<clipPath id="clip0">
<rect width="25" height="25" fill="white"/>
</clipPath>
</defs>
</svg>
