<svg width="25" height="25" viewBox="0 0 25 25" fill="none" xmlns="http://www.w3.org/2000/svg">
<g clip-path="url(#clip0)">
<path fill-rule="evenodd" clip-rule="evenodd" d="M1.13623 12.5001C1.13623 6.22738 6.21578 1.13647 12.4999 1.13647C18.7726 1.13647 23.8635 6.22738 23.8635 12.5001C23.8635 18.7842 18.7726 23.8637 12.4999 23.8637C6.21578 23.8637 1.13623 18.7842 1.13623 12.5001ZM15.034 14.5798L16.8749 8.76158C16.9999 8.36385 16.6362 7.98885 16.2385 8.11385L10.4203 9.93204C10.1817 10.0116 9.98852 10.1934 9.92034 10.432L8.10216 16.2616C7.97716 16.6479 8.35216 17.0229 8.73852 16.8979L14.534 15.0798C14.7726 15.0116 14.9658 14.8184 15.034 14.5798Z" fill="#2E2E2E"/>
</g>
<defs>
<clipPath id="clip0">
<rect width="25" height="25" fill="white"/>
</clipPath>
</defs>
</svg>
