<svg width="24" height="24" viewBox="0 0 24 24" fill="none" xmlns="http://www.w3.org/2000/svg">
<g clip-path="url(#clip0)">
<path d="M12 1.01465C5.94245 1.01465 1.01408 5.94302 1.01408 12.0006C1.01408 18.0582 5.94245 22.9865 12 22.9865C18.0576 22.9865 22.986 18.0582 22.986 12.0006C22.986 5.94302 18.0575 1.01465 12 1.01465ZM12.7146 18.5188C12.1927 18.6058 11.1541 18.8231 10.6268 18.8668C10.1804 18.9038 9.7591 18.6482 9.50231 18.2814C9.24484 17.9146 9.18314 17.4453 9.336 17.0242L11.4126 11.314H9.25351C9.25167 10.1241 10.1441 9.24926 11.2856 8.9135C11.8304 8.75323 12.8453 8.5339 13.3732 8.56752C13.6895 8.58763 14.2409 8.78609 14.4977 9.1529C14.7552 9.51968 14.8169 9.98905 14.664 10.4101L12.5874 16.1203H14.7458C14.7462 17.3088 13.887 18.3234 12.7146 18.5188V18.5188ZM13.3732 7.88087C12.6148 7.88087 12 7.26598 12 6.50762C12 5.74917 12.6148 5.13436 13.3732 5.13436C14.1317 5.13436 14.7465 5.74917 14.7465 6.50762C14.7465 7.26602 14.1317 7.88087 13.3732 7.88087Z" fill="#2E2E2E"/>
</g>
<defs>
<clipPath id="clip0">
<rect width="21.9718" height="21.9718" fill="white" transform="translate(1.01408 1.01465)"/>
</clipPath>
</defs>
</svg>
